<svg xmlns="http://www.w3.org/2000/svg" width="40px" height="40px" viewBox="0 0 31.97 27.36"><defs><style>.cls-1{fill:#2f2f2f;}.cls-2{fill:#939393;}.cls-3{fill:#c2c2c2;}</style></defs><title>api</title><g id="Layer_2" data-name="Layer 2"><g id="SYMBOLS"><g id="api"><path class="cls-1" d="M16.64,9.7V9.36a1,1,0,0,1,0-.17l2.42-1.51L17.57,4.1l-2.78.64c-.15-.17-.31-.32-.47-.47L15,1.49,11.37,0,9.86,2.42H9.19L7.68,0,4.1,1.49l.64,2.78a5.21,5.21,0,0,0-.47.47L1.49,4.1,0,7.68,2.42,9.19v.17c0,.05,0,.11,0,.17s0,.11,0,.17v.16L0,11.37,1.49,15l2.78-.64c.15.16.3.32.47.47L4.1,17.57l3.58,1.48,1.51-2.42h.67l1.51,2.42L15,17.57l-.64-2.78c.16-.15.32-.31.47-.47l2.78.64,1.48-3.59L16.63,9.86A.86.86,0,0,1,16.64,9.7Zm-3.87,1.2a3.47,3.47,0,0,1-1.87,1.87,3.53,3.53,0,0,1-1.37.28,3.46,3.46,0,0,1-1.37-.28A3.53,3.53,0,0,1,6.28,10.9,3.52,3.52,0,0,1,6,9.53a3.45,3.45,0,0,1,.27-1.37A3.6,3.6,0,0,1,8.16,6.28,3.45,3.45,0,0,1,9.53,6a3.52,3.52,0,0,1,1.37.27,3.53,3.53,0,0,1,1.87,1.88,3.46,3.46,0,0,1,.28,1.37A3.53,3.53,0,0,1,12.77,10.9Z"/><path class="cls-2" d="M30,19.81v-.27a.66.66,0,0,1,0-.14l2-1.21-1.2-2.89-2.24.51c-.12-.13-.25-.26-.38-.38l.51-2.24L25.77,12l-1.21,2H24L22.8,12l-2.89,1.2.51,2.24c-.13.12-.25.25-.38.38L17.8,15.3l-1.2,2.89,2,1.21a.66.66,0,0,1,0,.14v.27a.61.61,0,0,1,0,.14l-2,1.21,1.2,2.89L20,23.54l.38.37-.51,2.25,2.89,1.2,1.21-2h.55l1.21,2,2.89-1.2-.51-2.25c.13-.12.26-.24.38-.37l2.24.51L32,21.16,30,20A.61.61,0,0,1,30,19.81Zm-3.12,1a2.92,2.92,0,0,1-.61.9,2.85,2.85,0,0,1-3.11.61,2.81,2.81,0,0,1-.9-.61,2.92,2.92,0,0,1-.61-.9,2.75,2.75,0,0,1-.22-1.11,2.79,2.79,0,0,1,.83-2,2.81,2.81,0,0,1,.9-.61,2.83,2.83,0,0,1,3.94,2.61A2.75,2.75,0,0,1,26.9,20.78Z"/><path class="cls-3" d="M29.62,5.51V5.22L31,4.38l-.83-2-1.56.36a3.31,3.31,0,0,0-.26-.27L28.68.9l-2-.83-.85,1.36h-.37L24.6.07l-2,.83L23,2.46a3.31,3.31,0,0,0-.26.27l-1.56-.36-.84,2,1.36.84V5.6l-1.36.85.84,2,1.56-.35a3.19,3.19,0,0,0,.26.26l-.36,1.56,2,.83.85-1.36h.37l.85,1.36,2-.83-.36-1.56a3.19,3.19,0,0,0,.26-.26l1.56.35.83-2L29.62,5.6Zm-2.17.67A1.93,1.93,0,0,1,26.4,7.23a2,2,0,0,1-.77.15,1.91,1.91,0,0,1-.76-.15,1.93,1.93,0,0,1-1.05-1.05,1.93,1.93,0,0,1,0-1.54A1.79,1.79,0,0,1,24.24,4a2.13,2.13,0,0,1,.63-.43,1.91,1.91,0,0,1,.76-.15,2,2,0,0,1,.77.15A2.13,2.13,0,0,1,27,4a1.79,1.79,0,0,1,.42.62,1.93,1.93,0,0,1,0,1.54Z"/></g></g></g></svg>