<?xml version="1.0" encoding="utf-8"?>
<!-- Generator: Adobe Illustrator 22.0.1, SVG Export Plug-In . SVG Version: 6.00 Build 0)  -->
<svg version="1.1" id="Layer_1" xmlns="http://www.w3.org/2000/svg" xmlns:xlink="http://www.w3.org/1999/xlink" x="0px" y="0px"
	 viewBox="0 0 64 64" style="enable-background:new 0 0 64 64;" xml:space="preserve" width="40px" height="40px">
<style type="text/css">
	.st0{fill:#D2D2D2;}
	.st1{fill:#C2C2C2;}
	.st2{fill:#E6E6E6;}
	.st3{fill:#939393;}
</style>
<title>chat</title>
<g id="Layer_2_1_">
	<g id="SYMBOLS">
		<path class="st0" d="M3,49.4h8.3V56l3.2-3.3c1.2-1.2,2.2-2.2,3.3-3.3h30.7v-29H3V49.4z"/>
		<path class="st1" d="M48.6,49.4H17.9c-1.1,1.1-2.2,2.2-3.3,3.3L11.3,56v-6.6H3v-29h45.6V49.4z"/>
		<polygon class="st2" points="11.3,16.3 52.7,16.3 52.7,41.1 61,41.1 61,8 11.3,8 		"/>
		<polygon class="st3" points="61,41.1 52.7,41.1 52.7,16.3 11.3,16.3 11.3,8 61,8 		"/>
	</g>
</g>
</svg>
