<?xml version="1.0" encoding="utf-8"?>
<!-- Generator: Adobe Illustrator 23.0.0, SVG Export Plug-In . SVG Version: 6.00 Build 0)  -->
<svg version="1.1" id="Layer_1" xmlns="http://www.w3.org/2000/svg" xmlns:xlink="http://www.w3.org/1999/xlink" x="0px" y="0px"
	 viewBox="0 0 64 64" style="enable-background:new 0 0 64 64;" xml:space="preserve" width="40px" height="40px">
<style type="text/css">
	.st0{fill:#C2C2C2;}
	.st1{fill:#6265A8;}
</style>
<title>clock</title>
<g id="Layer_2_1_">
	<g id="SYMBOLS">
		<g id="_Time">
			<path class="st0" d="M32,1c-2.8,0-5.5,0.3-8.2,1.1c-2.6,0.7-5,1.7-7.3,3.1C11.9,7.9,8,11.7,5.3,16.3C2.5,21,1,26.3,1,31.8
				c0,2.8,0.3,5.5,1.1,8.2c0.7,2.6,1.7,5.2,3.1,7.5c1.3,2.3,3,4.4,4.8,6.3c1.9,1.9,4,3.5,6.3,4.9c9.6,5.7,21.6,5.7,31.3,0.1
				c2.3-1.3,4.4-3,6.3-4.8c1.9-1.9,3.5-4,4.9-6.3c5.7-9.6,5.7-21.5,0.1-31.2C56.2,11.9,52.4,8,47.8,5.3C43,2.5,37.6,1,32,1"/>
		</g>
		<polygon class="st1" points="32,32 32,9.9 27.6,9.9 27.6,36.4 45.3,36.4 45.3,32 		"/>
	</g>
</g>
</svg>
