<?xml version="1.0" encoding="utf-8"?>
<!-- Generator: Adobe Illustrator 22.1.0, SVG Export Plug-In . SVG Version: 6.00 Build 0)  -->
<svg version="1.1" id="Layer_1" width="40px" height="40px" xmlns="http://www.w3.org/2000/svg" xmlns:xlink="http://www.w3.org/1999/xlink" x="0px" y="0px"
	 viewBox="0 0 64 64" style="enable-background:new 0 0 64 64;" xml:space="preserve">
<style type="text/css">
	.st0{fill:#C2C2C2;}
	.st1{fill:#2F2F2F;}
</style>
<title>cloud_architecture2</title>
<g id="Layer_2_1_">
	<g id="SYMBOLS">
		<g id="cloud_architecture2">
			<path class="st0" d="M56.4,47.4c1.2-0.7,2.3-1.6,3.4-2.6c1-1,1.8-2.2,2.3-3.5c0.6-1.3,0.9-2.8,0.9-4.3c0-2.9-1.2-5.7-3.2-7.7
				c-2.1-2-4.8-3.2-7.7-3.2c-0.3-2-0.9-4-1.8-5.8c-0.9-1.7-2.1-3.3-3.6-4.6c-1.5-1.3-3.2-2.4-5.1-3.1c-1.9-0.8-3.9-1.1-6-1.1
				c-1.4,0-2.8,0.2-4.1,0.5c-1.3,0.3-2.6,0.8-3.8,1.4c-1.2,0.7-2.3,1.5-3.3,2.4c-1,1-1.9,2-2.6,3.2c-0.9-0.2-1.8-0.3-2.7-0.3
				c-2,0-3.9,0.4-5.7,1.1c-1.7,0.8-3.3,1.9-4.6,3.3C7.3,24.7,6,26.4,5,28.4l21.8,20.7h26.4"/>
			<g id="_Group_">
				<path class="st1" d="M1,52.5h24.5L1,27.9V52.5z M14.4,48.5H5v-9.4L14.4,48.5z"/>
			</g>
		</g>
	</g>
</g>
</svg>
