<?xml version="1.0" encoding="utf-8"?>
<!-- Generator: Adobe Illustrator 23.0.0, SVG Export Plug-In . SVG Version: 6.00 Build 0)  -->
<svg version="1.1" id="Layer_1" xmlns="http://www.w3.org/2000/svg" xmlns:xlink="http://www.w3.org/1999/xlink" x="0px" y="0px"
	 viewBox="0 0 64 64" style="enable-background:new 0 0 64 64;" xml:space="preserve" width="40px" height="40px" >
<style type="text/css">
	.st0{fill:#2F2F2F;}
	.st1{fill:#6265A8;}
	.st2{fill:#C2C2C2;}
</style>
<title>education_tutorial</title>
<g id="Layer_2_1_">
	<g id="SYMBOLS">
		<g id="education_tutorial">
			<path class="st0" d="M32,40.8L30.4,40l-15.7-7.8c-0.2,0.8-0.4,1.5-0.5,2.3c-0.2,0.9-0.3,1.9-0.3,2.9s0,2,0,3.2l18.1,9l18.1-9.1
				v-2.9c0-1.5-0.2-3.1-0.6-4.5c0-0.3-0.2-0.6-0.3-0.9L33.7,40L32,40.8z"/>
			<path class="st1" d="M11.2,42c-0.3-0.3-0.6-0.5-0.9-0.7c-0.6-0.3-1.2-0.5-1.8-0.5S7.2,41,6.7,41.3C6.3,41.5,6,41.7,5.8,42
				c-0.7,0.7-1.2,1.7-1.1,2.7v11.5h7.7V44.7C12.3,43.7,11.9,42.7,11.2,42z"/>
			<path class="st2" d="M32,7.8L3,22.3l3.6,1.8l0,0v17.2c0.6-0.3,1.2-0.5,1.8-0.5c0.6,0,1.3,0.2,1.8,0.5V25.9l0,0l5.9,3L32,36.8
				l15.8-7.9L61,22.3L32,7.8z"/>
		</g>
	</g>
</g>
</svg>
