<?xml version="1.0" encoding="utf-8"?>
<!-- Generator: Adobe Illustrator 23.0.1, SVG Export Plug-In . SVG Version: 6.00 Build 0)  -->
<svg version="1.1" id="Layer_1" xmlns="http://www.w3.org/2000/svg" xmlns:xlink="http://www.w3.org/1999/xlink" x="0px" y="0px"
	 viewBox="0 0 64 64" style="enable-background:new 0 0 64 64;" xml:space="preserve" width="40px" height="40px">
<style type="text/css">
	.st0{fill:#C2C2C2;}
	.st1{fill:#6265A8;}
</style>
<title>get_started</title>
<g id="Layer_2_1_">
	<g id="SYMBOLS">
		<g id="get_started">
			<path class="st0" d="M56.2,23.7c-1.7,0-3.2,1.4-3.2,3.2v5.8h-2V22.3c0-1.8-1.4-3.2-3.2-3.2s-3.2,1.4-3.2,3.2v10.3h-2V22.3
				c0.1-1.8-1.2-3.3-2.9-3.4c-1.8-0.1-3.3,1.2-3.4,2.9c0,0.2,0,0.3,0,0.5v10.3h-2.1V10.3c0-1.8-1.4-3.2-3.2-3.2l0,0
				c-1.7,0-3.1,1.4-3.1,3.2l0,0v22.3l0,0v8.2l-7.3-3c0,0-4.6-1.5-5.8,0.3c-0.7,0.9-0.6,2.2,0.2,3l17.2,17.2
				c4.2,3.5,13.6,2.5,13.6,2.5c13.7-1.4,13.4-10.2,13.4-10.2V26.9C59.4,25.1,58,23.7,56.2,23.7L56.2,23.7z"/>
			<polygon class="st1" points="16.5,7.4 14.7,7.4 12.3,7.5 13.5,8.7 16.2,11.4 23.7,18.9 20.5,22 13.1,14.6 10.3,11.8 9.1,10.6 
				9.1,13.1 9.1,17.8 4.6,17.8 4.6,17.5 4.6,3 12.1,3 19.2,3 19.5,3 19.5,7.4 			"/>
		</g>
	</g>
</g>
</svg>
