<?xml version="1.0" encoding="utf-8"?>
<!-- Generator: Adobe Illustrator 22.1.0, SVG Export Plug-In . SVG Version: 6.00 Build 0)  -->
<svg version="1.1" id="Layer_1" xmlns="http://www.w3.org/2000/svg" xmlns:xlink="http://www.w3.org/1999/xlink" x="0px" y="0px"
	 viewBox="0 0 64 64" style="enable-background:new 0 0 64 64;" xml:space="preserve" width="40px" height="40px" >
<style type="text/css">
	.st0{fill:#FFFFFF;}
	.st1{fill:#6265A8;}
</style>
<title>health</title>
<g id="Layer_2_1_">
	<g id="SYMBOLS">
		<g id="health">
			<g id="_Group_">
				<path class="st0" d="M45.5,6.7c2.1,0,4.1,0.4,6,1.2c1.8,0.8,3.5,1.9,4.9,3.3c2.9,2.9,4.5,6.8,4.5,10.9c0,2-0.4,4-1.2,5.9
					c-0.7,1.6-1.6,3.1-2.7,4.3l-0.6,0.6l-2.3,2.3L32,57.4L7.6,32.9C4.7,30.1,3,26.2,3,22.1s1.6-8,4.5-10.9c1.4-1.4,3.1-2.5,4.9-3.3
					c1.9-0.8,3.9-1.2,6-1.2c1.4,0,2.8,0.2,4.2,0.5C23.8,7.6,25,8.1,26,8.7c1.1,0.7,2.1,1.4,3,2.3c1,0.9,1.9,1.8,3,2.9
					c1-1.1,2-2,3-2.9c0.9-0.9,1.9-1.6,3-2.3c1.1-0.6,2.2-1.1,3.4-1.5C42.7,6.9,44.1,6.7,45.5,6.7z"/>
			</g>
			<path class="st1" d="M12.8,32h-1.1L32,52.3l16.6-16.7h5.1L32,57.4L7.5,32.9c-0.7-0.6-1.3-1.4-1.8-2.1c-0.5-0.8-0.9-1.6-1.3-2.4
				h6.9l8-8L32,33.1l9.1-9.1l4.4,4.3h10.1c0.6-1,1.1-2,1.4-3.1c0.3-1.1,0.5-2.2,0.4-3.3c0-3.1-1.2-6.1-3.4-8.3
				c-1.1-1.1-2.4-1.9-3.8-2.5c-1.5-0.6-3-0.9-4.6-0.9c-1.4,0-2.9,0.2-4.2,0.8c-1.2,0.5-2.4,1.1-3.4,2c-1.1,0.8-2.1,1.8-3,2.8
				c-1,1-2,2.1-3,3.1c-1-1-2-2-3-3.1c-0.9-1-1.9-1.9-3-2.8c-1.1-0.8-2.2-1.5-3.4-2c-1.3-0.5-2.7-0.8-4.1-0.8c-1.6,0-3.1,0.3-4.5,0.9
				c-2.9,1.2-5.1,3.5-6.3,6.3c-0.6,1.4-0.9,3-0.9,4.5c0,0.9,0.1,1.8,0.3,2.7H3.3c-0.1-0.4-0.2-0.9-0.3-1.4c0-0.5,0-0.9,0-1.4
				c0-2.1,0.4-4.1,1.2-6C5,14,6.1,12.3,7.5,10.9c2.9-2.9,6.8-4.5,10.9-4.5c1.4,0,2.8,0.2,4.2,0.5C23.8,7.5,24.9,8,26,8.6
				c1.1,0.7,2.1,1.4,3,2.3c1,0.9,2,1.8,3,2.9c1-1.1,2-2,3-2.9c0.9-0.9,1.9-1.6,3-2.3c1.1-0.6,2.2-1.1,3.4-1.5
				c1.4-0.4,2.8-0.6,4.2-0.5c2,0,4.1,0.4,6,1.2c1.8,0.8,3.5,1.9,4.9,3.3s2.5,3.1,3.3,4.9c0.8,1.9,1.3,3.9,1.3,6c0,1.8-0.3,3.6-1,5.3
				s-1.6,3.3-2.8,4.7H43.9l-2.8-2.9L32,38.2L19.3,25.5L12.8,32z"/>
		</g>
	</g>
</g>
</svg>
