<svg width="40" height="40" viewBox="0 0 40 40" fill="none" xmlns="http://www.w3.org/2000/svg">
<path d="M20.8751 0.624942C10.1876 0.124942 1.12514 8.43744 0.687644 19.1249C0.250144 29.8124 8.43764 38.8749 19.1251 39.3749C29.8126 39.8124 38.8751 31.5624 39.3751 20.9374C39.8751 10.2499 31.6251 1.12494 20.8751 0.624942C20.9376 0.624942 20.9376 0.624942 20.8751 0.624942ZM21.1876 30.3749L19.5001 28.6874L27.2501 20.8749H8.00014V18.4374H27.2501L19.5001 10.6874L21.2501 8.99994L31.8751 19.6249L21.1876 30.3749Z" fill="#C2C2C2"/>
<ellipse cx="20" cy="19.5" rx="20" ry="19.5" fill="#C4C4C4"/>
<path opacity="0.9" d="M16.2646 7.8125C16.7041 7.8125 17.0898 7.94922 17.4219 8.22266C17.7637 8.49609 17.9834 8.84766 18.0811 9.27734L21.1719 22.8711L23.8232 13.8477C23.9404 13.4473 24.1699 13.125 24.5117 12.8809C24.8535 12.627 25.2295 12.5 25.6396 12.5C25.9717 12.5 26.2793 12.583 26.5625 12.749C26.8457 12.9053 27.0703 13.125 27.2363 13.4082L29.4922 17.1875H33.125C33.3887 17.1875 33.6328 17.2363 33.8574 17.334C34.0918 17.4316 34.292 17.5635 34.458 17.7295C34.624 17.8955 34.7559 18.0957 34.8535 18.3301C34.9512 18.5547 35 18.7988 35 19.0625C35 19.3262 34.9512 19.5703 34.8535 19.7949C34.7559 20.0195 34.6191 20.2197 34.4434 20.3955C34.2773 20.5615 34.082 20.6934 33.8574 20.791C33.6328 20.8887 33.3887 20.9375 33.125 20.9375H28.4375C28.1152 20.9375 27.8467 20.8838 27.6318 20.7764C27.417 20.6592 27.2266 20.5127 27.0605 20.3369C26.8945 20.1514 26.748 19.9463 26.6211 19.7217C26.4941 19.4873 26.3574 19.248 26.2109 19.0039L22.7393 30.8398C22.6123 31.2793 22.3828 31.6162 22.0508 31.8506C21.7188 32.0752 21.3281 32.1875 20.8789 32.1875C20.4395 32.1875 20.0586 32.0508 19.7363 31.7773C19.4141 31.4941 19.2041 31.1426 19.1064 30.7227L15.752 15.9717L14.2432 19.7656C14.1064 20.127 13.877 20.415 13.5547 20.6299C13.2324 20.835 12.8809 20.9375 12.5 20.9375H6.875C6.61133 20.9375 6.36719 20.8887 6.14258 20.791C5.91797 20.6934 5.71777 20.5615 5.54199 20.3955C5.37598 20.2197 5.24414 20.0195 5.14648 19.7949C5.04883 19.5703 5 19.3262 5 19.0625C5 18.7988 5.04883 18.5547 5.14648 18.3301C5.24414 18.1055 5.37598 17.9102 5.54199 17.7441C5.71777 17.5684 5.91797 17.4316 6.14258 17.334C6.36719 17.2363 6.61133 17.1875 6.875 17.1875H11.2256L14.5068 8.98438C14.6533 8.62305 14.8828 8.33984 15.1953 8.13477C15.5176 7.91992 15.874 7.8125 16.2646 7.8125Z" fill="#6265A8"/>
</svg>
