<?xml version="1.0" encoding="utf-8"?>
<!-- Generator: Adobe Illustrator 22.1.0, SVG Export Plug-In . SVG Version: 6.00 Build 0)  -->
<svg version="1.1" xmlns="http://www.w3.org/2000/svg" xmlns:xlink="http://www.w3.org/1999/xlink" x="0px" y="0px"
	 viewBox="0 0 400 140" style="enable-background:new 0 0 400 140;" xml:space="preserve">
<style type="text/css">
	.st0{fill:#5558AE;}
	.st1{fill:#E6E6E6;}
</style>
<g id="Main_x5F_UI">
	<g>
		<g id="users_x5F_group_1_">
			<g>
				<g>
					<path class="st0" d="M126.6,129.2h20.9v-0.1c0-5.8,1.4-11.4,4-16.2c-2.2-0.9-4.6-1.5-7.1-1.5
						C134.5,111.4,126.6,119.3,126.6,129.2z"/>
					<path class="st0" d="M163.6,110.8c-1,1.1-2,2.3-2.8,3.6c-0.9,1.3-1.6,2.7-2.3,4.2c-1.4,3.2-2.2,6.8-2.2,10.5h5.8h4.4h4.5h24
						c0-7.1,2.8-13.5,7.3-18.3c-4.9-5.1-11.7-8.4-19.4-8.4C175.4,102.4,168.5,105.6,163.6,110.8z"/>
					<path class="st0" d="M221.7,111.3c-2.5,0-4.9,0.5-7.1,1.5c-1.4,0.6-2.6,1.4-3.8,2.3c-1.2,1-2.4,2.1-3.3,3.4
						c-2.2,3-3.6,6.6-3.6,10.6h5.8h4.4h4.4h20.9C239.5,119.3,231.5,111.3,221.7,111.3z"/>
					<path class="st0" d="M220.9,106.9c0.3,0,0.5,0.1,0.8,0.1s0.5-0.1,0.8-0.1c2.8-0.2,5.3-1.4,7.2-3.3c1.9-2,3.1-4.7,3.1-7.7
						c0-6.1-5-11.1-11.1-11.1c-6.1,0-11.1,5-11.1,11.1c0,3,1.2,5.7,3.1,7.7C215.6,105.5,218.1,106.7,220.9,106.9z"/>
					<path class="st0" d="M173,95c2.5,1.8,5.6,2.8,8.8,3c0.4,0,0.8,0.1,1.3,0.1c0.4,0,0.8-0.1,1.2-0.1c3.3-0.2,6.3-1.3,8.8-3
						c4.6-3.2,7.7-8.6,7.7-14.6c0-7.2-4.3-13.3-10.4-16.2c0,0,0,0,0,0c-2.2-1-4.7-1.6-7.4-1.6s-5.1,0.6-7.4,1.6l0,0
						c-6.1,2.8-10.4,9-10.4,16.2C165.3,86.4,168.3,91.8,173,95z"/>
					<path class="st0" d="M144.3,80.4c-7.4,0-13.3,6-13.3,13.3c0,4.1,1.9,7.7,4.8,10.2c2.1,1.8,4.8,2.9,7.8,3.1
						c0.3,0,0.5,0.1,0.8,0.1c0.3,0,0.5-0.1,0.8-0.1c3-0.2,5.6-1.3,7.8-3.1c2.9-2.4,4.8-6.1,4.8-10.2
						C157.7,86.4,151.7,80.4,144.3,80.4z"/>
				</g>
			</g>
		</g>
		<polygon class="st1" points="142.6,24.8 188.9,24.8 188.9,56.6 159.1,56.6 148.4,67.3 148.4,56.6 142.6,56.6 		"/>
		<polygon class="st1" points="238.7,63.6 273.4,63.6 273.4,87.5 251.1,87.5 243,95.6 243,87.5 238.7,87.5 		"/>
		<polygon class="st1" points="197.3,10.2 264.7,10.2 264.7,56.5 221.4,56.5 205.8,72.1 205.8,56.5 197.3,56.5 		"/>
	</g>
</g>
<g id="Text">
</g>
<g id="Border">
</g>
</svg>
