<?xml version="1.0" encoding="UTF-8" standalone="no"?>
<!-- Generator: Adobe Illustrator 22.1.0, SVG Export Plug-In . SVG Version: 6.00 Build 0)  -->

<svg
   xmlns:dc="http://purl.org/dc/elements/1.1/"
   xmlns:cc="http://creativecommons.org/ns#"
   xmlns:rdf="http://www.w3.org/1999/02/22-rdf-syntax-ns#"
   xmlns:svg="http://www.w3.org/2000/svg"
   xmlns="http://www.w3.org/2000/svg"
   xmlns:sodipodi="http://sodipodi.sourceforge.net/DTD/sodipodi-0.dtd"
   xmlns:inkscape="http://www.inkscape.org/namespaces/inkscape"
   version="1.1"
   x="0px"
   y="0px"
   viewBox="0 0 400 140"
   style="enable-background:new 0 0 400 140;"
   xml:space="preserve"
   id="svg26"
   sodipodi:docname="instructor-led-training-teams-landing-page-image9.svg"
   inkscape:version="0.92.2 (5c3e80d, 2017-08-06)"><metadata
     id="metadata32"><rdf:RDF><cc:Work
         rdf:about=""><dc:format>image/svg+xml</dc:format><dc:type
           rdf:resource="http://purl.org/dc/dcmitype/StillImage" /><dc:title></dc:title></cc:Work></rdf:RDF></metadata><defs
     id="defs30"><pattern
       y="0"
       x="0"
       height="6"
       width="6"
       patternUnits="userSpaceOnUse"
       id="EMFhbasepattern" /><pattern
       y="0"
       x="0"
       height="6"
       width="6"
       patternUnits="userSpaceOnUse"
       id="EMFhbasepattern-9" /></defs><sodipodi:namedview
     pagecolor="#ffffff"
     bordercolor="#666666"
     borderopacity="1"
     objecttolerance="10"
     gridtolerance="10"
     guidetolerance="10"
     inkscape:pageopacity="0"
     inkscape:pageshadow="2"
     inkscape:window-width="985"
     inkscape:window-height="876"
     id="namedview28"
     showgrid="false"
     inkscape:zoom="0.7925"
     inkscape:cx="255.92779"
     inkscape:cy="68.560452"
     inkscape:window-x="89"
     inkscape:window-y="622"
     inkscape:window-maximized="0"
     inkscape:current-layer="svg26" /><style
     type="text/css"
     id="style2">
	.st0{fill:#2F2F2F;}
	.st1{fill:#939393;}
	.st2{fill:#C2C2C2;}
	.st3{fill:#5558AE;stroke:#EFEFEF;stroke-width:6;stroke-miterlimit:10;}
	.st4{fill:#FFFFFF;}
</style><g
     id="Text" /><g
     id="Border" /><g
     id="g5225"
     transform="translate(14.80907,-57.26018)"><path
       inkscape:connector-curvature="0"
       style="fill:#c2c2c2;fill-opacity:1;fill-rule:evenodd;stroke:none;stroke-width:1"
       d="m 172.03709,127.76609 c 15.68343,0 28.83727,-12.9852 28.83727,-29.005917 0,-11.6361 -6.74556,-21.248507 -16.69528,-25.970404 -3.5414,-1.686384 -7.58874,-2.529589 -11.80471,-2.529589 -4.21597,0 -8.09469,1.180461 -11.80474,2.529589 -9.94972,4.721897 -16.69528,14.671586 -16.69528,25.970404 -0.67454,16.020717 12.14202,29.005917 28.16274,29.005917 z"
       id="path4614" /><path
       inkscape:connector-curvature="0"
       style="fill:#c2c2c2;fill-opacity:1;fill-rule:evenodd;stroke:none;stroke-width:1"
       d="m 172.03709,134.84893 c -23.77813,0 -43.17161,19.22485 -43.17161,43.00297 h 67.45563 v -37.26925 c -6.40828,-3.71005 -18.21302,-5.73372 -24.28402,-5.73372 z"
       id="path4616" /><path
       inkscape:connector-curvature="0"
       style="fill:#0078d4;fill-opacity:1;fill-rule:evenodd;stroke:none;stroke-width:1"
       d="m 205.93354,184.26018 h 33.05325 c 1.51774,0 2.52959,-1.01185 2.52959,-2.36095 V 120.5146 c 0,-1.3491 -1.01185,-2.52956 -2.52959,-2.52956 h -33.05325 c -1.51777,0 -2.52959,1.18046 -2.52959,2.52956 v 61.38463 c 0,1.3491 1.01182,2.36095 2.52959,2.36095 z m 11.63608,-9.27515 h 9.27515 v 4.72189 h -9.27515 z"
       id="path4618" /></g></svg>