<svg xmlns="http://www.w3.org/2000/svg" viewBox="0 0 400 140"><defs><style>.cls-1{fill:#e6e6e6;}.cls-2{fill:#c2c2c2;}.cls-3{fill:#5558ae;}.cls-4{fill:#939393;}</style></defs><title>MSteams_instructor_hub_tiles_about</title><g id="Main_UI"><rect class="cls-1" x="-0.07" width="400.15" height="140"/><g id="get_started"><path class="cls-2" d="M242.5,55.4A5.58,5.58,0,0,0,236.92,61V71.1h-3.57V53a5.57,5.57,0,0,0-11.14,0V71.1h-3.57V53a5.57,5.57,0,0,0-11.14,0V71.1h-3.64V31.93a5.57,5.57,0,0,0-5.57-5.57,5.5,5.5,0,0,0-5.49,5.57V71.1h0V85.54l-12.61-5.33s-8-2.68-10.11.57.2,5.32.2,5.32l30.26,30.23c7.41,6.23,23.91,4.4,23.91,4.4,24-2.43,23.62-17.87,23.62-17.87V61A5.58,5.58,0,0,0,242.5,55.4Z"/><polygon class="cls-3" points="172.79 26.84 169.63 26.85 165.32 26.86 167.47 29.01 172.31 33.85 185.36 46.9 179.81 52.44 166.76 39.4 161.92 34.55 159.78 32.41 159.76 36.72 159.73 45.1 151.93 45.1 151.93 44.54 151.93 19.02 164.98 19.02 177.46 19.02 178.02 19.02 178.02 26.82 172.79 26.84 172.79 26.84"/></g></g><g id="Border"><path class="cls-4" d="M399.07,1V139H.93V1H399.07m1-1H-.07V140H400.07V0Z"/></g></svg>