<?xml version="1.0" encoding="utf-8"?>
<!-- Generator: Adobe Illustrator 22.1.0, SVG Export Plug-In . SVG Version: 6.00 Build 0)  -->
<svg version="1.1" xmlns="http://www.w3.org/2000/svg" xmlns:xlink="http://www.w3.org/1999/xlink" x="0px" y="0px"
	 viewBox="0 0 400 140" style="enable-background:new 0 0 400 140;" xml:space="preserve">
<style type="text/css">
	.st0{fill:#5558AE;}
	.st1{fill:#2F2F2F;}
</style>
<g id="Main_x5F_UI">
	<g id="meeting_2_">
		<g id="XMLID_10_">
			<g>
				<g>
					<path class="st0" d="M126.7,103.1l23.4-0.1l11.3-20.3c-2.4-1.8-8-2.9-11.3-2.9C137.2,79.7,126.7,90.2,126.7,103.1z"/>
					<path class="st0" d="M176.6,76c-1.6,1.2-3.8,3.2-4.9,4.8h53.6C218.9,74.1,209,68,199,68C188.9,68,184.1,70,176.6,76z"/>
					<path class="st0" d="M249.9,79.6c-3.3,0-6.5,0.7-9.3,2c-1.8,0.8-3.5,1.9-5,3.1c-1.6,1.3-0.4-0.2-1.6,1.3l10.5,17.1h28.9
						C273.3,90.1,262.8,79.6,249.9,79.6z"/>
					<path class="st0" d="M248.9,73.9c0.3,0,0.7,0.1,1,0.1s0.7-0.1,1-0.1c3.7-0.3,7-1.8,9.5-4.3c2.6-2.6,4.1-6.2,4.1-10.2
						c0-8.1-6.5-14.6-14.6-14.6s-14.6,6.5-14.6,14.6c0,4,1.6,7.5,4.1,10.2C241.8,72.1,245.2,73.6,248.9,73.9z"/>
					<path class="st0" d="M185.8,58.2c3.3,2.3,7.3,3.7,11.6,4c0.6,0,1.1,0.2,1.7,0.2c0.6,0,1.1-0.1,1.6-0.2c4.3-0.3,8.3-1.7,11.6-4
						C218.4,54,222.4,47,222.4,39c0-9.5-5.6-17.6-13.7-21.2l0,0c-3-1.3-6.2-2.1-9.7-2.1s-6.7,0.8-9.7,2.1l0,0
						c-8.1,3.7-13.7,11.8-13.7,21.2C175.7,46.9,179.7,54,185.8,58.2z"/>
					<path class="st0" d="M150.1,39c-9.7,0-17.5,7.9-17.5,17.5c0,5.4,2.5,10.1,6.3,13.4c2.8,2.4,6.3,3.8,10.2,4.1
						c0.3,0,0.7,0.1,1,0.1c0.3,0,0.7-0.1,1-0.1c3.9-0.2,7.4-1.7,10.2-4.1c3.8-3.2,6.3-8,6.3-13.4C167.7,46.9,159.8,39,150.1,39z"/>
				</g>
			</g>
		</g>
		<path class="st1" d="M151.7,125.5v-8.2l16-28.6h59.6l17.2,28.6v8.2H151.7z"/>
	</g>
</g>
<g id="Text">
</g>
<g id="Border">
</g>
</svg>
