<svg xmlns="http://www.w3.org/2000/svg" viewBox="0 0 400 140"><defs><style>.cls-1{fill:#e6e6e6;}.cls-2{fill:#2f2f2f;}.cls-3{fill:#939393;}.cls-4{fill:#c2c2c2;}.cls-5{fill:#5558ae;stroke:#e6e6e6;stroke-miterlimit:10;stroke-width:6px;}.cls-6{fill:#fff;}</style></defs><title>MSteams_instructor_hub_tiles_plan</title><g id="Main_UI"><rect class="cls-1" width="400" height="140"/><g id="clipboard_organization"><path class="cls-2" d="M146.89,25.14h14.73c0-1.42,0-3-.05-4.72a16.75,16.75,0,0,1,.54-4.8,8,8,0,0,1,2.13-3.72A6.6,6.6,0,0,1,169,10.41a7.84,7.84,0,0,1,3.51.69,5.75,5.75,0,0,1,2.19,1.84,8.07,8.07,0,0,1,1.18,2.68,18.94,18.94,0,0,1,.49,3.16,32.68,32.68,0,0,1,0,3.28c0,1.1,0,2.12,0,3.08h14.73v7.37h-44.2Z"/><polygon class="cls-3" points="168.99 106.17 132.16 106.17 132.16 25.14 139.52 25.14 139.52 39.87 198.46 39.87 198.46 25.14 205.82 25.14 205.82 47.24 168.99 47.24 168.99 106.17"/><rect class="cls-4" x="176.36" y="54.61" width="44.2" height="69.98"/></g><g id="success"><path class="cls-5" d="M266.88,74.43A27.76,27.76,0,0,0,264.17,68,27.26,27.26,0,0,0,260,62.5a27,27,0,0,0-5.47-4.22A27.58,27.58,0,0,0,248,55.57a27.29,27.29,0,0,0-14.35,0,27.68,27.68,0,0,0-6.45,2.71,27.26,27.26,0,0,0-5.47,4.22A26.85,26.85,0,0,0,217.54,68a27.36,27.36,0,0,0-2.72,6.46,27.29,27.29,0,0,0,0,14.35,27.29,27.29,0,0,0,2.72,6.45,26.58,26.58,0,0,0,4.21,5.47,27.26,27.26,0,0,0,5.47,4.22,27.76,27.76,0,0,0,6.46,2.71,27.26,27.26,0,0,0,14.34,0,27.58,27.58,0,0,0,6.46-2.71,27,27,0,0,0,9.69-9.69,27.76,27.76,0,0,0,2.71-6.46,27.26,27.26,0,0,0,0-14.34Z"/><polygon class="cls-6" points="236.63 85.64 229.38 78.39 226.17 81.6 236.64 92.06 257.22 71.48 254 68.26 236.63 85.64"/></g></g><g id="Border"><path class="cls-3" d="M399,1V139H1V1H399m1-1H0V140H400V0Z"/></g></svg>