<svg id="Layer_1" data-name="Layer 1" xmlns="http://www.w3.org/2000/svg" viewBox="0 0 400 140"><defs><style>.cls-1{fill:#c2c2c2;}.cls-2{fill:#5558ae;}</style></defs><title>MSTeams-training-firstline-400x140</title><g id="mobile_user"><path class="cls-1" d="M187.44,70.82A27.68,27.68,0,1,0,159.72,43.1,27.72,27.72,0,0,0,187.44,70.82Z"/><path class="cls-1" d="M187.39,77.45A41.57,41.57,0,0,0,145.81,119h64.92v-36C204.78,79.75,193.21,77.45,187.39,77.45Z"/><path class="cls-2" d="M220,125.38h31.87a2.24,2.24,0,0,0,2.24-2.24V64a2.25,2.25,0,0,0-2.24-2.24H220A2.24,2.24,0,0,0,217.78,64v59.13A2.24,2.24,0,0,0,220,125.38Zm11.39-9.08h9.09v4.54h-9.09Z"/></g></svg>