<svg id="Art" xmlns="http://www.w3.org/2000/svg" viewBox="0 0 400 140"><defs><style>.cls-1{fill:#5558af;}.cls-2{fill:#fff;}.cls-3{fill:#505050;}.cls-4{fill:#c2c2c2;}</style></defs><title>DMC_Training ForGoverment_Hubtile</title><polygon class="cls-1" points="198.49 24.62 198.49 39.05 200.57 38.02 200.58 38.03 200.67 38.07 202.67 39.03 202.67 35.37 214.34 35.37 214.34 24.62 198.49 24.62"/><polygon class="cls-2" points="200.58 39.85 202.67 39.85 202.67 39.03 200.67 38.07 200.58 39.85"/><polygon class="cls-2" points="200.58 39.85 200.58 38.03 200.57 38.02 198.49 39.05 198.49 39.85 200.58 39.85"/><polygon class="cls-2" points="200.58 38.03 200.58 39.85 200.58 39.85 200.67 38.07 200.58 38.03"/><rect class="cls-3" x="168.86" y="72.19" width="7.53" height="21.84"/><rect class="cls-3" x="187.5" y="72.19" width="7.53" height="21.84"/><rect class="cls-3" x="206.13" y="72.19" width="7.53" height="21.84"/><rect class="cls-3" x="224.76" y="72.19" width="7.53" height="21.84"/><polygon class="cls-4" points="245.94 65.39 245.94 65.36 245.87 65.36 239.17 61.99 235.01 59.9 230.85 57.81 231.44 57.81 217.86 50.99 200.59 42.67 169.87 57.81 170.5 57.81 166.26 59.9 162.03 61.99 151.95 66.96 158.58 66.96 168.86 66.96 176.39 66.96 187.5 66.96 195.02 66.96 206.13 66.96 213.66 66.96 224.76 66.96 232.29 66.96 245.94 66.96 249.05 66.96 245.94 65.39"/><polygon class="cls-4" points="235.38 106.31 232.91 100.07 232.29 100.07 224.76 100.07 213.66 100.07 206.13 100.07 195.02 100.07 187.5 100.07 176.39 100.07 168.86 100.07 168.26 100.07 165.72 106.31 165.33 107.27 162.06 116.38 239.37 116.38 235.38 106.31"/></svg>