<?xml version="1.0" encoding="utf-8"?>
<!-- Generator: Adobe Illustrator 22.1.0, SVG Export Plug-In . SVG Version: 6.00 Build 0)  -->
<svg version="1.1" xmlns="http://www.w3.org/2000/svg" xmlns:xlink="http://www.w3.org/1999/xlink" x="0px" y="0px"
	 viewBox="0 0 400 140" style="enable-background:new 0 0 400 140;" xml:space="preserve">
<style type="text/css">
	.st0{fill:#E6E6E6;}
	.st1{fill:#C2C2C2;}
	.st2{fill:#5558AE;}
	.st3{fill:#2F2F2F;}
</style>
<g id="Main_x5F_UI">
	<g>
		<g id="site_x5F_team_1_">
			<g>
				<g>
					<path class="st0" d="M295,69V54.2H193v58.3h48.4c1.9-4.2,7-6.3,7-6.3c-6.8-2.7-6.8-16.4-0.4-22.3c8.6-7.9,20.2-0.5,20.2-0.5
						c1.2-5.8,5-14.6,13.3-16.3C290.8,65.3,295,69,295,69z"/>
					<rect x="193" y="32.4" class="st1" width="102.1" height="14.6"/>
				</g>
			</g>
			<g>
				<g>
					<path class="st2" d="M286.7,98.3c7.4,0,13.5-6,13.5-13.5c0-5.4-3.2-10.1-7.9-12.2c-1.7-0.8-3.6-1.2-5.6-1.2s-3.9,0.5-5.6,1.2
						c-4.6,2.1-7.9,6.8-7.9,12.2C273.2,92.3,279.2,98.3,286.7,98.3z"/>
					<path class="st2" d="M286.6,101.5c-11.1,0-20.2,9-20.2,20.2h40.4C306.8,110.6,297.8,101.5,286.6,101.5z"/>
					<g>
						<path class="st2" d="M244.6,121.8h15.8v-0.1c0-4.4,1.1-8.6,3-12.3c-1.6-0.7-3.5-1.1-5.4-1.1
							C250.6,108.3,244.6,114.4,244.6,121.8z"/>
						<path class="st2" d="M258,84.9c-5.6,0-10.1,4.5-10.1,10.1c0,3.1,1.4,5.8,3.6,7.7c1.6,1.4,3.6,2.2,5.9,2.3
							c0.2,0,0.4,0.1,0.6,0.1c0.2,0,0.4,0,0.6-0.1c2.2-0.1,4.3-1,5.9-2.3c2.2-1.9,3.6-4.6,3.6-7.7C268.1,89.4,263.6,84.9,258,84.9z"
							/>
					</g>
				</g>
			</g>
		</g>
		<g id="presenter_x5F_with_x5F_podium">
			<g>
				<path class="st2" d="M151.3,56.5c-1.2-1.9-2.6-3.5-4.3-4.9c-1.7-1.4-3.5-2.4-5.6-3.2c-2.1-0.8-4.3-1.1-6.6-1.1
					c-2.3,0-4.5,0.4-6.6,1.1c-2.1,0.8-4,1.8-5.6,3.2c-1.7,1.4-3.1,3-4.3,4.9c-1.2,1.9-2,4-2.5,6.2h37.9
					C153.3,60.4,152.5,58.3,151.3,56.5z"/>
				<polygon class="st3" points="93.2,70.2 93.2,77.8 108.3,77.8 108.3,123.3 161.4,123.3 161.4,77.8 176.5,77.8 176.5,70.2 				"/>
				<circle class="st2" cx="134.8" cy="32.4" r="11.4"/>
			</g>
		</g>
	</g>
</g>
<g id="Text">
</g>
<g id="Border">
</g>
</svg>
