<svg id="Layer_1" data-name="Layer 1" xmlns="http://www.w3.org/2000/svg" viewBox="0 0 400 140"><defs><style>.cls-1{fill:#c2c2c2;}.cls-2{fill:#5558ae;}</style></defs><title>MSTeams-training-optimizing-400x140</title><g id="users_group"><path class="cls-1" d="M167.17,123.69h24.51v-.09a41.29,41.29,0,0,1,4.64-19,20.82,20.82,0,0,0-29.15,19.11Z"/><path class="cls-1" d="M210.65,102.16a30.59,30.59,0,0,0-6,9.08,31.22,31.22,0,0,0-2.54,12.36h45.36a31.14,31.14,0,0,1,8.6-21.48,31.17,31.17,0,0,0-45.42,0Z"/><path class="cls-1" d="M278.75,102.75a20.89,20.89,0,0,0-8.34,1.75,21.2,21.2,0,0,0-4.46,2.74,21.55,21.55,0,0,0-3.87,3.94,20.7,20.7,0,0,0-4.18,12.42h41.7A20.85,20.85,0,0,0,278.75,102.75Z"/><path class="cls-1" d="M277.84,97.63c.3,0,.6.09.91.09s.6-.07.9-.09a13.1,13.1,0,1,0-1.81,0Z"/><path class="cls-1" d="M221.58,83.62a20.68,20.68,0,0,0,10.35,3.56c.5,0,1,.15,1.49.15s1-.11,1.46-.15A20.75,20.75,0,0,0,242,47.55h0a20.41,20.41,0,0,0-17.24,0h0a20.78,20.78,0,0,0-3.22,36.07Z"/><path class="cls-1" d="M188,66.53a15.61,15.61,0,0,0-.91,31.19c.3,0,.59.09.91.09s.6-.07.9-.09a15.61,15.61,0,0,0-.9-31.19Z"/></g><path class="cls-2" d="M168,88.52a18.86,18.86,0,0,1,0-14.93,19.49,19.49,0,0,1,10.23-10.26,18.11,18.11,0,0,1,3-1v-41H166.09V16.31H161v5.06H120.61V16.31h-5v5.06H100.4V92.1H170A20.52,20.52,0,0,1,168,88.52Zm-62.53-62.1h10.1v5h5v-5H161v5h5.06v-5h10.1v10.1H105.46ZM120.61,82h-5V76.94h5Zm0-10.11h-5v-5h5Zm0-10.1h-5V56.73h5ZM135.77,82h-5.05V76.94h5.05Zm0-10.11h-5.05v-5h5.05Zm0-10.1h-5.05V56.73h5.05Zm0-10.11h-5.05v-5h5.05ZM150.93,82h-5.05V76.94h5.05Zm0-10.11h-5.05v-5h5.05Zm0-10.1h-5.05V56.73h5.05Zm0-10.11h-5.05v-5h5.05Zm15.16,20.21H161v-5h5.06Zm0-10.1H161V56.73h5.06Zm0-10.11H161v-5h5.06Z"/><rect class="cls-1" x="130.72" y="46.63" width="5.05" height="5.05"/><rect class="cls-1" x="130.72" y="76.94" width="5.05" height="5.05"/><rect class="cls-1" x="145.88" y="76.94" width="5.05" height="5.05"/><rect class="cls-1" x="130.75" y="56.76" width="5" height="5"/><rect class="cls-1" x="115.59" y="56.76" width="5" height="5"/><rect class="cls-1" x="161.03" y="46.63" width="5.05" height="5.05"/></svg>