<svg xmlns="http://www.w3.org/2000/svg" viewBox="0 0 400 140"><defs><style>.cls-1{fill:#e6e6e6;}.cls-2{fill:#2f2f2f;}.cls-3{fill:#fff;}.cls-4{fill:#5558ae;}.cls-5{fill:#939393;}</style></defs><title>MSteams_instructor_hub_tiles_training</title><g id="Main_UI"><rect class="cls-1" width="400" height="140"/><g id="education_tutorial"><path class="cls-2" d="M200,90.83l-3.84-1.92L159.3,70.48A36.87,36.87,0,0,0,158,76a57.35,57.35,0,0,0-.6,6.77q-.1,3.48-.1,7.48L200,111.67l42.71-21.42V83.37a42.28,42.28,0,0,0-1.37-10.71c-.19-.73-.48-1.43-.71-2.14L203.84,88.91Z"/><path class="cls-3" d="M150.84,93.57A9.43,9.43,0,0,0,148.75,92a8.57,8.57,0,0,0-8.54,0,9.25,9.25,0,0,0-2.1,1.55,8.7,8.7,0,0,0-2.69,6.36V127.1h18.11V99.93A8.66,8.66,0,0,0,150.84,93.57Z"/><path class="cls-4" d="M200,12.9,131.66,47.07l8.55,4.27h0V92a8.57,8.57,0,0,1,8.54,0V55.61h0l14,7L200,81.24l37.24-18.62,31.1-15.55Z"/></g></g><g id="Border"><path class="cls-5" d="M399,1V139H1V1H399m1-1H0V140H400V0Z"/></g></svg>