<?xml version="1.0" encoding="utf-8"?>
<!-- Generator: Adobe Illustrator 22.1.0, SVG Export Plug-In . SVG Version: 6.00 Build 0)  -->
<svg version="1.1" xmlns="http://www.w3.org/2000/svg" xmlns:xlink="http://www.w3.org/1999/xlink" x="0px" y="0px"
	 viewBox="0 0 400 140" style="enable-background:new 0 0 400 140;" xml:space="preserve">
<style type="text/css">
	.st0{fill:#2F2F2F;}
	.st1{fill:#939393;}
	.st2{fill:#C2C2C2;}
	.st3{fill:#5558AE;stroke:#EFEFEF;stroke-width:6;stroke-miterlimit:10;}
	.st4{fill:#FFFFFF;}
</style>
<g id="Main_x5F_UI">
	<g id="clipboard_x5F_organization">
		<g>
			<g>
				<path class="st0" d="M146.9,25.1h14.7c0-1.4,0-3-0.1-4.7c0-1.7,0.1-3.3,0.5-4.8c0.4-1.5,1.1-2.7,2.1-3.7c1-1,2.6-1.5,4.7-1.5
					c1.4,0,2.6,0.2,3.5,0.7c0.9,0.5,1.7,1.1,2.2,1.8c0.5,0.8,0.9,1.7,1.2,2.7c0.2,1,0.4,2.1,0.5,3.2c0.1,1.1,0.1,2.2,0.1,3.3
					s-0.1,2.1-0.1,3.1h14.7v7.4h-44.2V25.1z"/>
			</g>
			<g>
				<polygon class="st1" points="169,106.2 132.2,106.2 132.2,25.1 139.5,25.1 139.5,39.9 198.5,39.9 198.5,25.1 205.8,25.1 
					205.8,47.2 169,47.2 				"/>
			</g>
			<g>
				<rect x="176.4" y="54.6" class="st2" width="44.2" height="70"/>
			</g>
		</g>
	</g>
	<path class="st3" d="M266.9,74.4c-0.6-2.3-1.5-4.5-2.7-6.5c-1.2-2-2.6-3.8-4.2-5.5c-1.6-1.6-3.5-3-5.5-4.2c-2-1.2-4.2-2.1-6.5-2.7
		c-2.3-0.6-4.7-1-7.2-1c-2.5,0-4.9,0.3-7.2,1c-2.3,0.6-4.4,1.5-6.4,2.7c-2,1.2-3.8,2.6-5.5,4.2c-1.6,1.6-3,3.5-4.2,5.5
		c-1.2,2-2.1,4.2-2.7,6.5c-0.6,2.3-1,4.7-1,7.2c0,2.5,0.3,4.9,1,7.2c0.6,2.3,1.5,4.4,2.7,6.4c1.2,2,2.6,3.8,4.2,5.5
		c1.6,1.6,3.5,3,5.5,4.2c2,1.2,4.2,2.1,6.5,2.7c2.3,0.6,4.7,1,7.2,1c2.5,0,4.9-0.3,7.2-1c2.3-0.6,4.5-1.5,6.5-2.7
		c2-1.2,3.8-2.6,5.5-4.2c1.6-1.6,3-3.5,4.2-5.5c1.2-2,2.1-4.2,2.7-6.5c0.6-2.3,1-4.7,1-7.2S267.5,76.7,266.9,74.4z"/>
	<polygon class="st4" points="236.6,85.6 229.4,78.4 226.2,81.6 236.6,92.1 257.2,71.5 254,68.3 	"/>
</g>
<g id="Text">
</g>
<g id="Border">
</g>
</svg>
