<?xml version="1.0" encoding="utf-8"?>
<!-- Generator: Adobe Illustrator 22.1.0, SVG Export Plug-In . SVG Version: 6.00 Build 0)  -->
<svg version="1.1" xmlns="http://www.w3.org/2000/svg" xmlns:xlink="http://www.w3.org/1999/xlink" x="0px" y="0px"
	 viewBox="0 0 400 140" style="enable-background:new 0 0 400 140;" xml:space="preserve">
<style type="text/css">
	.st0{fill:#C2C2C2;}
	.st1{fill:#5558AE;}
</style>
<g id="Main_x5F_UI">
	<g id="get_x5F_started_2_">
		<g>
			<g>
				<g>
					<path class="st0" d="M242.5,55.4c-3.1,0-5.6,2.5-5.6,5.6v10.1h-3.6V52.9c0-3.1-2.5-5.6-5.6-5.6c-3.1,0-5.6,2.5-5.6,5.6v18.1
						h-3.6V52.9c0-3.1-2.5-5.6-5.6-5.6c-3.1,0-5.6,2.5-5.6,5.6v18.1h-3.6V31.9c0-3.1-2.5-5.6-5.6-5.6c-3.1,0-5.5,2.5-5.5,5.6v39.2
						l0,0v14.4l-12.6-5.3c0,0-8-2.7-10.1,0.6c-2.1,3.3,0.2,5.3,0.2,5.3l30.3,30.2c7.4,6.2,23.9,4.4,23.9,4.4
						c24-2.4,23.6-17.9,23.6-17.9V71.6v-0.5V61C248.1,57.9,245.6,55.4,242.5,55.4z"/>
				</g>
			</g>
			<polygon class="st1" points="172.8,26.8 169.6,26.8 165.3,26.9 167.5,29 172.3,33.8 185.4,46.9 179.8,52.4 166.8,39.4 
				161.9,34.6 159.8,32.4 159.8,36.7 159.7,45.1 151.9,45.1 151.9,44.5 151.9,19 165,19 177.5,19 178,19 178,26.8 172.8,26.8 			"/>
		</g>
	</g>
</g>
<g id="Text">
</g>
<g id="Border">
</g>
</svg>
