<?xml version="1.0" encoding="utf-8"?>
<!-- Generator: Adobe Illustrator 22.1.0, SVG Export Plug-In . SVG Version: 6.00 Build 0)  -->
<svg version="1.1" xmlns="http://www.w3.org/2000/svg" xmlns:xlink="http://www.w3.org/1999/xlink" x="0px" y="0px"
	 viewBox="0 0 400 140" style="enable-background:new 0 0 400 140;" xml:space="preserve">
<style type="text/css">
	.st0{fill:#2F2F2F;}
	.st1{fill:#E6E6E6;}
	.st2{fill:#5558AE;}
</style>
<g id="Main_x5F_UI">
	<g id="education_x5F_tutorial_1_">
		<g>
			<path class="st0" d="M200,90.8l-3.8-1.9l-36.9-18.4c-0.6,1.8-1,3.7-1.3,5.5c-0.3,2.2-0.5,4.5-0.6,6.8c-0.1,2.3-0.1,4.8-0.1,7.5
				l42.7,21.4l42.7-21.4v-6.9c0-3.6-0.5-7.2-1.4-10.7c-0.2-0.7-0.5-1.4-0.7-2.1l-36.8,18.4L200,90.8z"/>
			<path class="st1" d="M150.8,93.6c-0.7-0.6-1.4-1.1-2.1-1.6c-1.3-0.7-2.7-1.1-4.3-1.1c-1.6,0-3,0.4-4.3,1.1
				c-0.7,0.4-1.4,0.9-2.1,1.6c-1.8,1.8-2.7,3.9-2.7,6.4v27.2h18.1V99.9C153.5,97.5,152.6,95.4,150.8,93.6z"/>
			<path class="st2" d="M200,12.9l-68.3,34.2l8.5,4.3v0v4.8v4.8V92c1.3-0.7,2.7-1.1,4.3-1.1c1.6,0,3,0.4,4.3,1.1V65.2v-4.8v-4.8v0
				l14,7L200,81.2l37.2-18.6l31.1-15.5L200,12.9z"/>
		</g>
	</g>
</g>
<g id="Text">
</g>
<g id="Border">
</g>
</svg>
