<?xml version="1.0" encoding="UTF-8" standalone="no"?>
<!-- Generator: Adobe Illustrator 22.1.0, SVG Export Plug-In . SVG Version: 6.00 Build 0)  -->

<svg
   xmlns:dc="http://purl.org/dc/elements/1.1/"
   xmlns:cc="http://creativecommons.org/ns#"
   xmlns:rdf="http://www.w3.org/1999/02/22-rdf-syntax-ns#"
   xmlns:svg="http://www.w3.org/2000/svg"
   xmlns="http://www.w3.org/2000/svg"
   xmlns:sodipodi="http://sodipodi.sourceforge.net/DTD/sodipodi-0.dtd"
   xmlns:inkscape="http://www.inkscape.org/namespaces/inkscape"
   version="1.1"
   x="0px"
   y="0px"
   viewBox="0 0 400 140"
   style="enable-background:new 0 0 400 140;"
   xml:space="preserve"
   id="svg26"
   sodipodi:docname="instructor-led-training-teams-landing-page-image8.svg"
   inkscape:version="0.92.2 (5c3e80d, 2017-08-06)"><metadata
     id="metadata32"><rdf:RDF><cc:Work
         rdf:about=""><dc:format>image/svg+xml</dc:format><dc:type
           rdf:resource="http://purl.org/dc/dcmitype/StillImage" /><dc:title></dc:title></cc:Work></rdf:RDF></metadata><defs
     id="defs30"><pattern
       y="0"
       x="0"
       height="6"
       width="6"
       patternUnits="userSpaceOnUse"
       id="EMFhbasepattern" /></defs><sodipodi:namedview
     pagecolor="#ffffff"
     bordercolor="#666666"
     borderopacity="1"
     objecttolerance="10"
     gridtolerance="10"
     guidetolerance="10"
     inkscape:pageopacity="0"
     inkscape:pageshadow="2"
     inkscape:window-width="985"
     inkscape:window-height="876"
     id="namedview28"
     showgrid="false"
     inkscape:zoom="0.7925"
     inkscape:cx="142.09549"
     inkscape:cy="68.560452"
     inkscape:window-x="0"
     inkscape:window-y="0"
     inkscape:window-maximized="0"
     inkscape:current-layer="svg26" /><style
     type="text/css"
     id="style2">
	.st0{fill:#2F2F2F;}
	.st1{fill:#939393;}
	.st2{fill:#C2C2C2;}
	.st3{fill:#5558AE;stroke:#EFEFEF;stroke-width:6;stroke-miterlimit:10;}
	.st4{fill:#FFFFFF;}
</style><g
     id="Text" /><g
     id="Border" /><g
     id="g5205"
     transform="translate(3.1038833,-4.53265)"><g
       transform="translate(-153.32225,-171.40135)"
       id="g4607"><path
         id="path4542"
         d="m 273.56926,279.73209 h 24.11539 l 9.68269,-21.92308 c -2.92309,-1.46156 -6.39425,-2.00961 -9.68269,-2.00961 -12.97117,0 -24.11539,10.59613 -24.11539,23.93269 z"
         style="fill:#c2c2c2;fill-opacity:1;fill-rule:evenodd;stroke:none;stroke-width:0.99999994"
         inkscape:connector-curvature="0" /><path
         id="path4544"
         d="m 327.46347,251.96284 c -1.46153,1.46156 -3.83653,3.28847 -5.29805,4.75 h 55.17307 c -6.57695,-7.125 -16.80769,-13.33652 -27.22116,-13.33652 -10.23078,0 -14.98078,2.375 -22.65386,8.58652 z"
         style="fill:#c2c2c2;fill-opacity:1;fill-rule:evenodd;stroke:none;stroke-width:0.99999994"
         inkscape:connector-curvature="0" /><path
         id="path4546"
         d="m 402.9154,255.7994 c -3.47117,0 -6.75961,0.91344 -9.6827,2.00961 -1.82691,0.91344 -3.28847,1.82691 -5.29808,3.28844 -1.82691,1.46156 -0.36539,0 -1.82691,1.46156 l 10.96152,17.72113 h 29.77885 C 427.39617,266.39553 416.25195,255.7994 402.9154,255.7994 Z"
         style="fill:#c2c2c2;fill-opacity:1;fill-rule:evenodd;stroke:none;stroke-width:0.99999994"
         inkscape:connector-curvature="0" /><path
         id="path4548"
         d="m 402.00192,249.58784 c 0.36539,0 0.36539,0 0.91348,0 0.36538,0 0.36538,0 0.91347,0 3.83652,-0.54808 7.30769,-2.00961 9.68269,-4.38461 2.375,-2.92308 4.20191,-6.21152 4.20191,-10.59616 0,-8.03844 -6.57691,-14.79808 -14.79807,-14.79808 -8.22117,0 -14.98078,6.75964 -14.98078,14.79808 0,4.38464 1.46156,7.67308 4.38461,10.59616 2.375,2.375 5.84617,4.38461 9.68269,4.38461 z"
         style="fill:#c2c2c2;fill-opacity:1;fill-rule:evenodd;stroke:none;stroke-width:0.99999994"
         inkscape:connector-curvature="0" /><path
         id="path4550"
         d="m 336.59811,233.14554 c 3.28844,2.5577 7.67305,3.83653 12.05769,4.38461 0.36536,0 0.91344,0 1.82691,0 0.54809,0 0.91345,0 2.00962,0 4.20191,-0.54808 8.58652,-1.82691 11.87499,-4.38461 6.39422,-4.20191 10.59617,-11.50961 10.59617,-19.54808 0,-9.68269 -5.66347,-18.26921 -14.43269,-22.10577 0,0 0,0 0,0 -2.74039,-1.46153 -6.21156,-2.55769 -10.04809,-2.55769 -3.83655,0 -6.7596,1.09616 -10.04808,2.55769 0,0 0,0 0,0 -8.22116,3.83656 -14.43269,11.875 -14.43269,22.10577 0.54809,8.03847 4.38461,15.34617 10.59617,19.54808 z"
         style="fill:#c2c2c2;fill-opacity:1;fill-rule:evenodd;stroke:none;stroke-width:0.99999994"
         inkscape:connector-curvature="0" /><path
         id="path4552"
         d="m 297.68465,213.59746 c -10.04809,0 -18.26925,8.03847 -18.26925,18.26922 0,5.66347 2.375,10.41347 6.75961,13.88464 2.92308,2.375 6.75964,3.83652 10.59616,4.20191 0.36539,0 0.36539,0 0.91348,0 0.54805,0 0.54805,0 0.91344,0 3.83655,0 7.67308,-1.82691 10.59616,-4.20191 3.83653,-3.47117 6.75961,-8.22117 6.75961,-13.88464 0,-10.23075 -8.22116,-18.26922 -18.26921,-18.26922 z"
         style="fill:#c2c2c2;fill-opacity:1;fill-rule:evenodd;stroke:none;stroke-width:0.99999994"
         inkscape:connector-curvature="0" /><path
         id="path4554"
         d="m 299.51156,302.934 v -8.76922 l 16.4423,-29.77886 h 61.38463 l 17.90382,29.77886 v 8.76922 z"
         style="fill:#0078d4;fill-opacity:1;fill-rule:evenodd;stroke:none;stroke-width:0.99999994"
         inkscape:connector-curvature="0" /></g><path
       class="st3"
       d="m 208.70689,107.56999 c -0.33168,-1.27125 -0.82921,-2.48725 -1.49258,-3.59269 -0.66336,-1.10544 -1.43729,-2.10035 -2.32177,-3.03997 -0.88449,-0.88436 -1.93482,-1.65817 -3.04043,-2.32144 -1.10561,-0.66326 -2.32178,-1.16071 -3.59324,-1.49234 -1.27144,-0.33164 -2.59817,-0.55273 -3.98018,-0.55273 -1.38202,0 -2.70875,0.16582 -3.9802,0.55273 -1.27145,0.33163 -2.43234,0.82908 -3.53795,1.49234 -1.10561,0.66327 -2.10066,1.43708 -3.04043,2.32144 -0.88448,0.88435 -1.65841,1.93453 -2.32178,3.03997 -0.66336,1.10544 -1.16089,2.32144 -1.49257,3.59269 -0.33168,1.27127 -0.5528,2.5978 -0.5528,3.97961 0,1.3818 0.16584,2.70833 0.5528,3.9796 0.33168,1.27125 0.82921,2.43198 1.49257,3.53742 0.66337,1.10544 1.4373,2.10035 2.32178,3.03998 0.88449,0.88435 1.93482,1.65816 3.04043,2.32143 1.10561,0.66326 2.32178,1.16072 3.59323,1.49234 1.27145,0.33164 2.59818,0.55273 3.98019,0.55273 1.38201,0 2.70875,-0.16581 3.9802,-0.55273 1.27145,-0.33162 2.48762,-0.82908 3.59323,-1.49234 1.10561,-0.66327 2.10066,-1.43708 3.04042,-2.32143 0.88449,-0.88436 1.65842,-1.93454 2.32179,-3.03998 0.66336,-1.10544 1.16089,-2.32144 1.49257,-3.59269 0.33168,-1.27127 0.5528,-2.5978 0.5528,-3.97961 0,-1.3818 -0.2764,-2.65306 -0.60808,-3.92433 z"
       id="path19"
       inkscape:connector-curvature="0"
       style="fill:#5558ae;stroke:#efefef;stroke-width:2;stroke-miterlimit:10;stroke-dasharray:none" /><polygon
       transform="matrix(0.55280471,0,0,0.55272232,61.163313,66.44745)"
       class="st4"
       points="229.4,78.4 226.2,81.6 236.6,92.1 257.2,71.5 254,68.3 236.6,85.6 "
       id="polygon21"
       style="fill:#ffffff;stroke-width:1.80909193" /></g></svg>