<svg xmlns="http://www.w3.org/2000/svg" viewBox="0 0 400 140"><defs><style>.cls-1{fill:#e6e6e6;}.cls-2{fill:#5558ae;}.cls-3{fill:#fff;}.cls-4{fill:#939393;}</style></defs><title>MSteams_instructor_hub_tiles_channels</title><g id="Main_UI"><rect class="cls-1" width="400" height="140"/><g id="users_group"><path class="cls-2" d="M126.55,129.16h20.91v-.08a35.35,35.35,0,0,1,3.95-16.23,17.76,17.76,0,0,0-24.86,16.31Z"/><path class="cls-2" d="M163.64,110.8a27.18,27.18,0,0,0-2.85,3.55,27.71,27.71,0,0,0-2.27,4.19,26.59,26.59,0,0,0-2.17,10.54H195a26.56,26.56,0,0,1,7.34-18.32,26.58,26.58,0,0,0-38.74,0Z"/><path class="cls-2" d="M221.72,111.29a17.15,17.15,0,0,0-10.91,3.84,17.83,17.83,0,0,0-6.87,14H239.5A17.79,17.79,0,0,0,221.72,111.29Z"/><path class="cls-2" d="M221,106.93c.26,0,.51.07.77.07s.51-.06.77-.07a11.19,11.19,0,1,0-1.54,0Z"/><path class="cls-2" d="M173,95a17.7,17.7,0,0,0,8.83,3c.43,0,.84.13,1.27.13s.83-.1,1.25-.13a17.71,17.71,0,0,0,6.11-33.81h0a17.41,17.41,0,0,0-14.71,0h0A17.74,17.74,0,0,0,173,95Z"/><path class="cls-2" d="M144.33,80.41a13.29,13.29,0,0,0-8.54,23.5,13.2,13.2,0,0,0,7.77,3.09c.26,0,.51.08.77.08s.52-.06.78-.08a13.37,13.37,0,0,0,12.56-13.25A13.34,13.34,0,0,0,144.33,80.41Z"/></g><polygon class="cls-3" points="142.62 24.75 188.92 24.75 188.92 56.59 159.15 56.59 148.41 67.33 148.41 56.59 142.62 56.59 142.62 24.75"/><polygon class="cls-3" points="238.65 63.56 273.45 63.56 273.45 87.48 251.07 87.48 243 95.56 243 87.48 238.65 87.48 238.65 63.56"/><polygon class="cls-3" points="197.34 10.21 264.69 10.21 264.69 56.52 221.38 56.52 205.76 72.14 205.76 56.52 197.34 56.52 197.34 10.21"/></g><g id="Border"><path class="cls-4" d="M399,1V139H1V1H399m1-1H0V140H400V0Z"/></g></svg>