<svg xmlns="http://www.w3.org/2000/svg" viewBox="0 0 400 140"><defs><style>.cls-1{fill:#e6e6e6;}.cls-2{fill:#5558ae;}.cls-3{fill:#2f2f2f;}.cls-4{fill:#939393;}</style></defs><title>MSteams_instructor_hub_tiles_meetings</title><g id="Main_UI"><rect class="cls-1" width="400" height="140"/><g id="meeting"><g id="_Group_" data-name="&lt;Group&gt;"><path class="cls-2" d="M126.73,103.13l23.39-.09L161.43,82.7c-2.4-1.82-8-3-11.31-3A23.39,23.39,0,0,0,126.73,103.13Z"/><path class="cls-2" d="M176.62,76a25.77,25.77,0,0,0-4.88,4.85h53.6C219,74.12,209,68,199,68S184.12,70,176.62,76Z"/><path class="cls-2" d="M249.88,79.65a22.61,22.61,0,0,0-14.35,5c-1.63,1.28-.42-.15-1.63,1.28L244.39,103h28.88A23.38,23.38,0,0,0,249.88,79.65Z"/><path class="cls-2" d="M248.86,73.9c.35,0,.67.1,1,.1s.68-.07,1-.1a14.71,14.71,0,1,0-2,0Z"/><path class="cls-2" d="M185.77,58.2a23.2,23.2,0,0,0,11.6,4c.56,0,1.1.17,1.67.17s1.09-.13,1.65-.17a23.29,23.29,0,0,0,8-44.46h0a22.92,22.92,0,0,0-19.34,0h0a23.32,23.32,0,0,0-3.6,40.47Z"/><path class="cls-2" d="M150.12,39a17.51,17.51,0,0,0-1,35c.34,0,.67.1,1,.1s.67-.08,1-.1a17.63,17.63,0,0,0,16.52-17.44A17.54,17.54,0,0,0,150.12,39Z"/></g><path class="cls-3" d="M151.66,125.48v-8.17l16-28.6h59.63l17.15,28.6v8.17Z"/></g></g><g id="Border"><path class="cls-4" d="M399,1V139H1V1H399m1-1H0V140H400V0Z"/></g></svg>