<?xml version="1.0" encoding="utf-8"?>
<!-- Generator: Adobe Illustrator 23.0.1, SVG Export Plug-In . SVG Version: 6.00 Build 0)  -->
<svg version="1.1" id="Layer_1"  width="40px" height="40px" xmlns="http://www.w3.org/2000/svg" xmlns:xlink="http://www.w3.org/1999/xlink" x="0px" y="0px"
	 viewBox="0 0 64 64" style="enable-background:new 0 0 64 64;" xml:space="preserve">
<style type="text/css">
	.st0{fill:#D2D2D2;}
	.st1{fill:#2F2F2F;}
	.st2{fill:#6265A8;}
</style>
<title>sign_up</title>
<g id="Layer_2_1_">
	<g id="SYMBOLS">
		<g id="sign_up">
			<polygon class="st0" points="7.9,56 11.5,41.6 41.2,11.9 3,11.9 3,60.9 52,60.9 52,22.7 22.3,52.4 			"/>
			<path class="st1" d="M45.1,12.7l6.3,6.3L22,48.4c-0.5-1.5-1.3-2.8-2.4-3.9c-1.1-1.1-2.4-2-3.9-2.5L45.1,12.7z"/>
			<rect x="50" y="7.8" transform="matrix(0.7071 -0.7071 0.7071 0.7071 6.5049 40.1989)" class="st1" width="3.6" height="8.9"/>
			
				<rect x="47.8" y="10.2" transform="matrix(0.7071 -0.7071 0.7071 0.7071 4.1333 39.2741)" class="st1" width="3.3" height="8.9"/>
			<path class="st2" d="M52.9,4.9c0.3-0.3,0.6-0.6,1-0.9s0.7-0.5,1.1-0.6c0.5-0.2,0.9-0.3,1.4-0.3c0.6,0,1.2,0.1,1.7,0.4
				c0.5,0.2,1,0.6,1.4,1c0.4,0.4,0.7,0.9,1,1.4C60.9,6.4,61,7,61,7.6c0,0.5-0.1,1-0.2,1.4c-0.1,0.4-0.3,0.8-0.6,1.1
				c-0.3,0.4-0.6,0.7-0.9,1l-1,0.9L52,5.8L52.9,4.9z"/>
			<path class="st1" d="M14,44.7c0.6,0.1,1.2,0.4,1.8,0.7c0.6,0.3,1.2,0.8,1.7,1.2c0.9,1,1.5,2.2,1.8,3.4l-7.1,1.8L14,44.7z"/>
		</g>
	</g>
</g>
</svg>
