<svg id="Layer_1" width="40px" height="40px" data-name="Layer 1" xmlns="http://www.w3.org/2000/svg" viewBox="0 0 64 64"><defs><style>.cls-1{fill:#c2c2c2;}.cls-2{fill:#2f2f2f;}.cls-3{fill:#6265A8;}.cls-4{fill:none;}</style></defs><title>Small-business-blue</title><path class="cls-1" d="M52.63,30a4.13,4.13,0,0,1-8.25,0,4.13,4.13,0,0,1-8.26,0,4.13,4.13,0,0,1-8.25,0,4.13,4.13,0,0,1-8.25,0,4.13,4.13,0,0,1-8.25,0,4.13,4.13,0,0,1-4.12,4.1,4,4,0,0,1-2.07-.57V61H58.82V33.57a4,4,0,0,1-2.07.57A4.12,4.12,0,0,1,52.63,30M11.81,56.9l-.16-16.55h40.7l.16,16.55Z"/><rect class="cls-2" x="11.64" y="26.83" width="0.01" height="4.14"/><path class="cls-2" d="M11.64,31s0,0,0,0v0Z"/><rect class="cls-3" x="19.78" y="26.83" width="0.01" height="4.14"/><path class="cls-3" d="M19.78,31s0,0,0,0v0Z"/><rect class="cls-2" x="27.92" y="26.83" width="0.01" height="4.14"/><path class="cls-2" d="M27.92,31s0,0,0,0v0Z"/><rect class="cls-3" x="36.06" y="26.83" width="0.01" height="4.14"/><path class="cls-3" d="M36.06,31s0,0,0,0v0Z"/><rect class="cls-2" x="44.2" y="26.83" width="0.01" height="4.14"/><path class="cls-2" d="M44.2,31s0,0,0,0v0Z"/><rect class="cls-3" x="52.35" y="26.83" width="0.01" height="4.14"/><path class="cls-3" d="M52.35,31v0h0v0"/><polygon class="cls-1" points="60.5 27.16 3.5 27.16 11.65 14.58 30.1 14.58 30.1 12.65 15.81 12.65 15.81 2 48.19 2 48.19 12.65 33.9 12.65 33.9 14.58 52.35 14.58 60.5 27.16"/><rect class="cls-4" x="3.5" y="2" width="57" height="60"/><path class="cls-2" d="M52.51,27.16v4.23a4.25,4.25,0,0,1-8.49,0h0V27.16Z"/><path class="cls-3" d="M60.5,27.16v4.31a4.19,4.19,0,0,1-3.19,4.17,4.08,4.08,0,0,1-4.8-4.17V27.16Z"/><path class="cls-2" d="M36.09,27.16v4.23a4.07,4.07,0,1,1-8.14,0h0V27.16Z"/><path class="cls-3" d="M44.09,27.16v4.31a4.2,4.2,0,0,1-3.19,4.17,4.09,4.09,0,0,1-4.81-4.17V27.16Z"/><path class="cls-2" d="M20,27.16v4.23a4.25,4.25,0,0,1-8.49,0h0V27.16Z"/><path class="cls-3" d="M27.93,27.16v4.31a4.19,4.19,0,0,1-3.19,4.17,4.08,4.08,0,0,1-4.8-4.17V27.16Z"/><path class="cls-3" d="M11.49,27.16v4.31A4.19,4.19,0,0,1,8.3,35.64a4.08,4.08,0,0,1-4.8-4.17V27.16Z"/></svg>