<?xml version="1.0" encoding="utf-8"?>
<!-- Generator: Adobe Illustrator 22.1.0, SVG Export Plug-In . SVG Version: 6.00 Build 0)  -->
<svg version="1.1" id="Layer_1" xmlns="http://www.w3.org/2000/svg" xmlns:xlink="http://www.w3.org/1999/xlink" x="0px" y="0px"
	 viewBox="0 0 64 64" style="enable-background:new 0 0 64 64;" xml:space="preserve" width="40px" height="40px">
<style type="text/css">
	.st0{fill:#C2C2C2;}
	.st1{fill:#FFFFFF;}
</style>
<title>success</title>
<g id="Layer_2_1_">
	<g id="SYMBOLS">
		<g id="success">
			<path class="st0" d="M60,24.3c-0.7-2.4-1.7-4.8-2.9-6.9C54.5,13.1,50.9,9.5,46.6,7c-2.2-1.3-4.5-2.2-6.9-2.9
				c-5-1.4-10.4-1.4-15.4,0c-2.4,0.7-4.7,1.7-6.9,2.9C13.1,9.5,9.5,13.1,7,17.4c-1.3,2.2-2.2,4.5-2.9,6.9c-1.4,5-1.4,10.4,0,15.4
				c0.7,2.4,1.7,4.7,2.9,6.9c2.5,4.3,6.1,7.9,10.4,10.4c2.2,1.3,4.5,2.2,6.9,2.9c5,1.4,10.4,1.4,15.4,0c2.4-0.7,4.8-1.7,6.9-2.9
				c4.3-2.5,7.9-6.1,10.4-10.4c1.3-2.2,2.2-4.5,2.9-6.9C61.3,34.7,61.3,29.3,60,24.3z"/>
			<polygon class="st1" points="27.5,36.3 19.7,28.6 16.2,32 27.5,43.2 49.6,21.1 46.1,17.7 			"/>
		</g>
	</g>
</g>
</svg>
