<?xml version="1.0" encoding="utf-8"?>
<!-- Generator: Adobe Illustrator 22.0.1, SVG Export Plug-In . SVG Version: 6.00 Build 0)  -->
<svg version="1.1" id="Layer_1" xmlns="http://www.w3.org/2000/svg" xmlns:xlink="http://www.w3.org/1999/xlink" x="0px" y="0px"
	 viewBox="0 0 64 64" style="enable-background:new 0 0 64 64;" xml:space="preserve" width="40px" height="40px"> 
<style type="text/css">
	.st0{fill:#C2C2C2;}
</style>
<title>toolbox</title>
<g id="Layer_2_1_">
	<g id="SYMBOLS">
		<g id="toolbox">
			<g id="_Utility_-_Maintain">
				<path class="st0" d="M46.5,32c1.9,0,3.9-0.4,5.6-1.1c3.5-1.5,6.2-4.2,7.7-7.7c0.8-1.8,1.2-3.7,1.2-5.7c0-1.6-0.3-3.1-0.8-4.5
					L48.6,24.6l-9.1-9.1L51,3.8c-1.4-0.5-3-0.8-4.5-0.8c-1.9,0-3.9,0.4-5.7,1.1c-1.7,0.7-3.3,1.8-4.6,3.1c-1.3,1.3-2.4,2.9-3.1,4.6
					c-0.8,1.8-1.2,3.7-1.2,5.7c0,0.7,0.1,1.5,0.2,2.2c0.1,0.7,0.3,1.4,0.5,2.1L5,49.5c-0.6,0.6-1.1,1.4-1.5,2.2
					c-0.7,1.7-0.7,3.5,0,5.2C3.9,57.7,4.4,58.4,5,59c0.6,0.6,1.3,1.1,2.1,1.4C7.9,60.8,8.8,61,9.7,61c0.9,0,1.8-0.2,2.6-0.5
					c0.8-0.3,1.5-0.8,2.2-1.5l27.7-27.6c0.7,0.2,1.4,0.3,2.1,0.5C45,31.9,45.8,32,46.5,32"/>
			</g>
		</g>
	</g>
</g>
</svg>
