<?xml version="1.0" encoding="UTF-8"?>
<svg width="100px" height="118px" viewBox="0 0 100 118" version="1.1" xmlns="http://www.w3.org/2000/svg" xmlns:xlink="http://www.w3.org/1999/xlink">
    <!-- Generator: Sketch 59.1 (86144) - https://sketch.com -->
    <title>Upgrade to Microsoft Teams/upgrade-to-microsoft-teams</title>
    <desc>Created with Sketch.</desc>
    <defs>
        <path d="M44.5234375,1.54914609 C46.2234375,0.516382029 48.1109375,0 50,0 C51.8890625,0 53.778125,0.516382029 55.475,1.54914609 L94.365625,25.1853599 C97.846875,27.3028615 100,31.2629081 100,35.5582677 L100,82.4417323 C100,86.7354153 97.846875,90.698815 94.365625,92.8146401 L55.475,116.45253 C53.778125,117.483618 51.8890625,118 50,118 C48.1109375,118 46.2234375,117.483618 44.5234375,116.45253 L5.634375,92.8146401 C2.1515625,90.698815 0,86.7354153 0,82.4417323 L0,35.5582677 C0,31.2629081 2.1515625,27.3028615 5.634375,25.1853599 L44.5234375,1.54914609 Z" id="path-1"></path>
        <filter x="-6.5%" y="-6.9%" width="112.9%" height="113.8%" filterUnits="objectBoundingBox" id="filter-3">
            <feOffset dx="0" dy="2" in="SourceAlpha" result="shadowOffsetOuter1"></feOffset>
            <feColorMatrix values="0 0 0 0 0   0 0 0 0 0   0 0 0 0 0  0 0 0 0.102764423 0" type="matrix" in="shadowOffsetOuter1" result="shadowMatrixOuter1"></feColorMatrix>
            <feMerge>
                <feMergeNode in="shadowMatrixOuter1"></feMergeNode>
                <feMergeNode in="SourceGraphic"></feMergeNode>
            </feMerge>
        </filter>
        <path d="M2.58334625,13.078125 L28.4167313,13.078125 C29.8434406,13.078125 31,14.2347425 31,15.6614519 L31,41.4947788 C31,42.9214957 29.8434482,44.078125 28.4167313,44.078125 L2.58334625,44.078125 C1.15660351,44.078125 0,42.9215215 0,41.4947788 L0,15.6614713 C0,14.2347285 1.15660351,13.078125 2.58334625,13.078125 Z" id="path-4"></path>
        <filter x="-3.2%" y="-3.2%" width="106.5%" height="112.9%" filterUnits="objectBoundingBox" id="filter-5">
            <feOffset dx="0" dy="2" in="SourceAlpha" result="shadowOffsetOuter1"></feOffset>
            <feColorMatrix values="0 0 0 0 0   0 0 0 0 0   0 0 0 0 0  0 0 0 0.0950065559 0" type="matrix" in="shadowOffsetOuter1"></feColorMatrix>
        </filter>
    </defs>
    <g id="Badges" stroke="none" stroke-width="1" fill="none" fill-rule="evenodd">
        <g id="Upgrade-to-Microsoft-Teams" transform="translate(-50.000000, -50.000000)">
            <g id="Upgrade-to-Microsoft-Teams/upgrade-to-microsoft-teams" transform="translate(50.000000, 50.000000)">
                <g id="Mask" transform="translate(2.000000, 2.000000)">
                    <g id="Hex" transform="translate(-2.000000, 0.000000)">
                        <mask id="mask-2" fill="white">
                            <use xlink:href="#path-1"></use>
                        </mask>
                        <use id="Trophy-1" fill="#FF0000" fill-rule="evenodd" xlink:href="#path-1"></use>
                        <g id="Color/DE" mask="url(#mask-2)" fill="#DEDEDE" fill-rule="evenodd">
                            <rect id="Rectangle" x="0" y="0" width="100" height="118"></rect>
                        </g>
                    </g>
                    <g id="Microsoft_Office_Teams_(2018–present)" filter="url(#filter-3)" transform="translate(15.000000, 22.000000)" fill-rule="nonzero">
                        <circle id="Head" fill="#7B83EB" cx="33" cy="9.078125" r="9"></circle>
                        <circle id="Head-2" fill="#5059C9" cx="53" cy="12.078125" r="7"></circle>
                        <path d="M59.1503187,20.078125 L44.2158048,20.078125 C43.5452701,20.078125 43.0016942,20.6322696 43.0016942,21.3158416 L43.0016942,37.023605 C42.9164168,41.7085571 46.0587691,45.8152661 50.5369084,46.8713016 C53.3398696,47.4710586 56.258703,46.7510386 58.4826112,44.9112497 C60.7065194,43.0714607 61.998623,40.3078677 62,37.3881451 L62,22.9832902 C62,21.378842 60.7241665,20.078125 59.1503187,20.078125 L59.1503187,20.078125 Z" id="Path" fill="#5059C9"></path>
                        <path d="M48,22.9990641 L48,41.4983284 C48.0045934,48.5475723 43.295797,54.7202723 36.5212356,56.5456872 C29.7466742,58.371102 22.597091,55.3936586 19.0925022,49.2874923 C18.7196671,48.6647165 18.3957668,48.0136422 18.1237524,47.3402014 C17.870157,46.7052411 17.6566092,46.0548563 17.4843775,45.3929104 C17.164961,44.1195284 17.0022861,42.8115523 17,41.4983284 L17,22.9990641 C16.9989724,22.2240666 17.3048348,21.4805132 17.8500858,20.9325068 C18.3953368,20.3845003 19.1351514,20.0770922 19.906252,20.078125 L45.0937472,20.078125 C45.8648478,20.0770922 46.6046625,20.3845003 47.1499134,20.9325068 C47.6951644,21.4805132 48.0010268,22.2240666 48,22.9990641 Z" id="Path" fill="#7B83EB"></path>
                        <g id="Back_Plate">
                            <use fill="black" fill-opacity="1" filter="url(#filter-5)" xlink:href="#path-4"></use>
                            <use fill="#4B53BC" xlink:href="#path-4"></use>
                        </g>
                        <polygon id="Path" fill="#FFFFFF" points="24 22.8252783 17.9917504 22.8252783 17.9917504 38.078125 14.0430672 38.078125 14.0430672 22.8252783 8 22.8252783 8 19.078125 24 19.078125"></polygon>
                    </g>
                    <g id="Cloud" transform="translate(20.000000, 55.000000)">
                        <path d="M50.6836892,16.6436747 C50.6891216,16.5171687 50.7027027,16.3933735 50.7027027,16.2650602 C50.7027027,11.7731928 47.0548243,8.13253012 42.5540541,8.13253012 C41.2846757,8.13253012 40.0877297,8.43072289 39.0157297,8.94759036 C37.1252432,3.73283133 32.1346486,0 26.2567568,0 C19.6817027,0 14.199473,4.66355422 12.9463919,10.8569277 C12.8558514,10.8551205 12.7671216,10.8433735 12.6756757,10.8433735 C5.67508108,10.8433735 0,16.5072289 0,23.4939759 C0,30.4807229 5.67508108,36.1445783 12.6756757,36.1445783 L14.5317568,36.1445783 C14.5145541,35.8436747 14.4864865,35.5463855 14.4864865,35.2409639 C14.4864865,26.7578313 21.377527,19.8795181 29.8783784,19.8795181 C38.3792297,19.8795181 45.2702703,26.7578313 45.2702703,35.2409639 C45.2702703,35.5463855 45.2422027,35.8436747 45.225,36.1445783 L47.9864865,36.1445783 C53.4868243,36.1445783 57.9459459,31.6942771 57.9459459,26.2048193 C57.9459459,21.6496988 54.8720946,17.8192771 50.6836892,16.6436747" id="Fill-354" fill="#FFFFFF"></path>
                        <path d="M48.6736892,16.2993976 C49.3663243,16.3472892 50.0372297,16.4629518 50.6836892,16.6436747 C50.6891216,16.5171687 50.7027027,16.3933735 50.7027027,16.2650602 C50.7027027,13.5578313 49.3717568,11.1659639 47.3336892,9.6876506 C48.3097162,11.0286145 48.8918919,12.6731928 48.8918919,14.4578313 C48.8918919,15.0921687 48.8113108,15.7066265 48.6736892,16.2993976" id="Fill-355" fill="#C5CCCD"></path>
                        <path d="M35.3108108,19.8795181 C36.2542432,19.8795181 37.1569324,20.0475904 37.9998649,20.3421687 C39.1615,18.3442771 39.8378378,16.0301205 39.8378378,13.5542169 C39.8378378,9.11927711 37.6938378,5.1939759 34.3945405,2.72168675 C36.0994189,4.98614458 37.1216216,7.79277108 37.1216216,10.8433735 C37.1216216,14.4325301 35.7137162,17.6846386 33.4302838,20.1054217 C34.0350946,19.9626506 34.6625405,19.8795181 35.3108108,19.8795181" id="Fill-356" fill="#C5CCCD"></path>
                        <path d="M22.5898649,21.710241 C23.3621757,21.2954819 24.1779459,20.953012 25.0217838,20.671988 C24.3318649,17.6692771 22.5771892,15.0740964 20.1679054,13.3057229 C21.880027,15.6307229 22.818027,18.553012 22.5898649,21.710241" id="Fill-357" fill="#C5CCCD"></path>
                        <path d="M43.4594595,28.0165663 C43.4594595,28.014759 43.4594595,28.0138554 43.4594595,28.0120482 C43.4594595,25.3048193 42.1285135,22.9129518 40.0904459,21.4346386 C40.8962568,22.5424699 41.4259189,23.8581325 41.5888919,25.286747 C42.3050676,26.1253012 42.9352297,27.0370482 43.4594595,28.0165663" id="Fill-358" fill="#C5CCCD"></path>
                        <path d="M14.4864865,35.2409639 C14.4864865,34.3048193 14.5842703,33.3921687 14.744527,32.5012048 C13.8499865,32.8671687 12.9074595,33.1346386 11.9278108,33.2837349 C8.36775676,33.825 5.05125676,32.8662651 2.46722973,30.9713855 C4.77510811,34.1033133 8.48183784,36.1445783 12.6756757,36.1445783 L14.5317568,36.1445783 C14.5145541,35.8436747 14.4864865,35.5463855 14.4864865,35.2409639" id="Fill-359" fill="#C5CCCD"></path>
                        <path d="M53.5384324,17.953012 C54.9083108,19.9843373 55.5466216,22.5460843 55.0758108,25.2659639 C54.4175811,29.0674699 51.4949324,32.1939759 47.7438378,33.126506 C46.8601622,33.3460843 45.9945946,33.4364458 45.153473,33.426506 C45.2240946,34.0228916 45.2702703,34.6256024 45.2702703,35.2409639 C45.2702703,35.5463855 45.2422027,35.8436747 45.225,36.1445783 L47.6714054,36.1445783 C53.0857297,36.1445783 57.7476622,31.9662651 57.9396081,26.5662651 C58.0672703,22.9807229 56.2899595,19.8 53.5384324,17.953012" id="Fill-360" fill="#C5CCCD"></path>
                    </g>
                    <g id="Arrow" transform="translate(37.000000, 78.000000)">
                        <path d="M11.7702703,25.2939759 C4.2764352,25.2939759 -1.8,19.229238 -1.8,11.746988 C-1.8,4.26473787 4.2764352,-1.8 11.7702703,-1.8 C19.2641053,-1.8 25.3405405,4.26473787 25.3405405,11.746988 C25.3405405,19.229238 19.2641053,25.2939759 11.7702703,25.2939759 Z" id="Fill-352" stroke="#DEDEDE" stroke-width="3.6" fill="#4B53BC"></path>
                        <path d="M17.688,10.5740964 L13.160973,5.15240964 C12.4728649,4.32831325 11.0676757,4.32831325 10.3795676,5.15240964 L5.85254054,10.5740964 C5.21241892,11.3412651 5.31563514,12.4798193 6.08432432,13.1195783 C6.85301351,13.7584337 7.99382432,13.6545181 8.63394595,12.888253 L9.95945946,11.3006024 L9.95945946,17.1524096 C9.95945946,18.1509036 10.7697973,18.9596386 11.7702703,18.9596386 C12.7698378,18.9596386 13.5810811,18.1509036 13.5810811,17.1524096 L13.5810811,11.3006024 L14.9065946,12.888253 C15.2642297,13.3165663 15.7794054,13.5379518 16.2982027,13.5379518 C16.7065405,13.5379518 17.1175946,13.4006024 17.4562162,13.1195783 C18.2249054,12.4798193 18.3281216,11.3412651 17.688,10.5740964" id="Fill-353" fill="#FFFFFE"></path>
                    </g>
                </g>
                <g id="Teams-Hex-Border" stroke="#4B53BC" stroke-width="4">
                    <path d="M45.5618501,3.25844398 L45.5621963,3.25823359 L6.67338401,26.8942953 C3.79673288,28.6432593 2,31.9508238 2,35.5582677 L2,82.4417323 C2,86.0486597 3.79764663,89.3586805 6.67318764,91.1055853 L45.560618,114.742485 C46.9289662,115.572418 48.4546283,116 50,116 C51.5458817,116 53.0723633,115.572188 54.4362178,114.743457 L93.3268764,91.1055464 C96.2016145,89.3583456 98,86.0476286 98,82.4417323 L98,35.5582677 C98,31.9518547 96.202529,28.6435953 93.3268966,26.8944659 L54.4351916,3.25759524 C53.0721095,2.42798656 51.5462432,2 50,2 C48.4542664,2 46.9292165,2.42775755 45.5618501,3.25844398 Z" id="Azure-Hex-Border"></path>
                </g>
            </g>
        </g>
    </g>
</svg>