<?xml version="1.0" encoding="utf-8"?>
<!-- Generator: Adobe Illustrator 22.1.0, SVG Export Plug-In . SVG Version: 6.00 Build 0)  -->
<svg version="1.1" id="Layer_1"  width="40px" height="40px" xmlns="http://www.w3.org/2000/svg" xmlns:xlink="http://www.w3.org/1999/xlink" x="0px" y="0px"
	 viewBox="0 0 64 64" style="enable-background:new 0 0 64 64;" xml:space="preserve">
<style type="text/css">
	.st0{fill:#C2C2C2;}
	.st1{fill:#939393;}
</style>
<title>users_people</title>
<g id="Layer_2_1_">
	<g id="SYMBOLS">
		<g id="users_people">
			<path class="st0" d="M42.9,33.7c7.4,0,13.4-6,13.4-13.4s-6-13.4-13.4-13.4c-7.4,0-13.3,6-13.4,13.4
				C29.5,27.7,35.5,33.7,42.9,33.7C42.9,33.7,42.9,33.7,42.9,33.7z"/>
			<path class="st0" d="M42.9,36.9c-11.1,0-20.1,9-20.1,20.1H63C63,45.9,54,36.9,42.9,36.9z"/>
			<path class="st1" d="M1,57.1h15.7l0,0c0-4.3,1-8.5,3-12.2C12.9,42,5,45.1,2.1,51.9C1.4,53.6,1,55.3,1,57.1z"/>
			<path class="st1" d="M14.4,20.3c-5.5,0-10,4.5-10.1,10c0,5.3,4.2,9.7,9.5,10c0.2,0,0.4,0,0.6,0s0.4,0,0.6,0
				c5.5-0.3,9.8-5,9.5-10.6C24.2,24.5,19.7,20.3,14.4,20.3z"/>
		</g>
	</g>
</g>
</svg>
