<?xml version="1.0" encoding="utf-8"?>
<!-- Generator: Adobe Illustrator 22.0.1, SVG Export Plug-In . SVG Version: 6.00 Build 0)  -->
<svg version="1.1" id="Layer_1" xmlns="http://www.w3.org/2000/svg" xmlns:xlink="http://www.w3.org/1999/xlink" x="0px" y="0px"
	 viewBox="0 0 64 64" style="enable-background:new 0 0 64 64;" xml:space="preserve" width="40px" height="40px">
<style type="text/css">
	.st0{fill:none;}
	.st1{fill:#D2D2D2;}
	.st2{fill:#C2C2C2;}
	.st3{fill:#2F2F2F;}
	.st4{fill:#6265A8;}
</style>
<title>walkthrough_map</title>
<g id="Layer_2_1_">
	<g id="SYMBOLS">
		<polygon class="st0" points="23.7,9.1 23.7,45 23.8,45 40.3,54.9 40.3,19 40.2,19 		"/>
		<polygon class="st1" points="3,52.5 19.6,44.9 19.6,8.9 3,17.9 		"/>
		<path class="st2" d="M19.6,44.9L3,52.5V17.9l16.6-9.1V44.9z"/>
		<polygon class="st3" points="40.3,54.9 23.8,45 23.7,45 23.7,9.1 40.2,19 40.3,19 		"/>
		<polygon class="st4" points="44.4,55.1 61,46.1 61,11.5 44.4,19.1 		"/>
		<polygon class="st4" points="61,46.1 44.4,55.1 44.4,19.1 61,11.5 		"/>
	</g>
</g>
</svg>
