<svg id="Layer_1" data-name="Layer 1" xmlns="http://www.w3.org/2000/svg" viewBox="0 0 400 140"><defs><style>.cls-1{fill:#efefef;}.cls-2{fill:none;}.cls-3{fill:#0078d4;}.cls-4{fill:#c2c2c2;}.cls-5{fill:#d83b01;}.cls-6{fill:#5558af;}</style></defs><title>Skype_Biz_6_400x140</title><rect class="cls-1" width="400" height="140"/><g id="walkthrough_map"><polygon class="cls-2" points="168.26 18.5 168.26 97.6 168.48 97.67 224.14 119.5 224.14 40.4 223.92 40.33 168.26 18.5"/><path class="cls-3" d="M161.28,97.53,105.4,114.15V37.9L161.28,18Z"/><polygon class="cls-4" points="224.14 119.5 168.48 97.67 168.26 97.6 168.26 18.5 223.92 40.33 224.14 40.4 224.14 119.5"/><polygon class="cls-5" points="231.12 120 287 100.1 287 23.85 231.12 40.47 231.12 120"/><polygon class="cls-6" points="287 100.1 231.12 120 231.12 40.47 287 23.85 287 100.1"/></g><g id="walkthrough_shoes"><path class="cls-4" d="M131.9,59.73,130,56.9a6.67,6.67,0,0,1,.84-.84,9.54,9.54,0,0,1,.89-.71c.31-.21.61-.4.91-.57l.86-.44a12.22,12.22,0,0,1,1.93-.72,5.27,5.27,0,0,1,1.23-.15,4,4,0,0,1,.92.09,2.52,2.52,0,0,1,.66.26,2.55,2.55,0,0,1,.42.32.94.94,0,0,1,.23.29,1,1,0,0,1,.09.17h0l0,.1a1.5,1.5,0,0,1,.1.72,2.28,2.28,0,0,1-.22.7,3.51,3.51,0,0,1-.45.66,6.37,6.37,0,0,1-.57.59,10.82,10.82,0,0,1-1.72,1.21,2.81,2.81,0,0,1-.52.26,5,5,0,0,1-.5.17c-.19,0-.37.1-.55.13Zm-1.85,1.37a4.54,4.54,0,0,1-1.23.7,2.46,2.46,0,0,1-.53.15,1.77,1.77,0,0,1-.56,0,1.84,1.84,0,0,1-.55-.17,1.47,1.47,0,0,1-.49-.42.36.36,0,0,1-.07-.1,1.38,1.38,0,0,1-.13-.25,2.07,2.07,0,0,1-.13-.52,1.46,1.46,0,0,1,.07-.67,2.37,2.37,0,0,1,.42-.77,3.83,3.83,0,0,1,.92-.83l1.13-.73,2.09,3Zm-9.93,8.24.43,3.39a7.81,7.81,0,0,0,1.18.09,10.6,10.6,0,0,0,1.14-.06,8.69,8.69,0,0,0,1.06-.17c.33-.07.64-.15.93-.23a13,13,0,0,0,1.93-.73,4.84,4.84,0,0,0,1-.69,3.84,3.84,0,0,0,.63-.68,2.22,2.22,0,0,0,.33-.62,3.26,3.26,0,0,0,.11-.52,1.37,1.37,0,0,0,0-.37c0-.1,0-.16,0-.19v0l0-.09a1.45,1.45,0,0,0-.4-.61,2.23,2.23,0,0,0-.63-.39,3.62,3.62,0,0,0-.77-.2,7.38,7.38,0,0,0-.81-.07,10.72,10.72,0,0,0-2.1.22,3.82,3.82,0,0,0-.56.14l-.5.21c-.17.08-.33.17-.49.26Zm-2.28.18a4.83,4.83,0,0,0-1.39.28,4.59,4.59,0,0,0-.5.24,1.68,1.68,0,0,0-.43.36,1.44,1.44,0,0,0-.3.49,1.39,1.39,0,0,0-.1.63.49.49,0,0,0,0,.12,1.6,1.6,0,0,0,.07.28,2.33,2.33,0,0,0,.24.47,1.56,1.56,0,0,0,.49.46,2.44,2.44,0,0,0,.83.31,3.89,3.89,0,0,0,1.24,0l1.33-.18-.36-3.6Zm-.7,1.27a3,3,0,0,0-.51.18.9.9,0,0,0-.32.22.38.38,0,0,0-.09.13.44.44,0,0,0,0,.35.75.75,0,0,0,.3.34,1.62,1.62,0,0,0,.44.14,3,3,0,0,0,.84,0l.27,0-.15-1.41h-.33C117.47,70.73,117.31,70.75,117.14,70.79Zm7.37.53c.24-.07.46-.14.66-.22l.53-.2.36-.15.17-.08a4.3,4.3,0,0,0,1-.76,1.81,1.81,0,0,0,.39-.55.75.75,0,0,0,.07-.29V68.9l0-.06,0,0a.77.77,0,0,0-.09-.13.74.74,0,0,0-.32-.18,3.68,3.68,0,0,0-1.19-.18,4.68,4.68,0,0,0-.66,0l-.57.07a4.58,4.58,0,0,0-.56.11h-.1a1.21,1.21,0,0,0-.29.07,2.85,2.85,0,0,0-.31.12l-.3.14-.23.12,0,0h0l-1.74,1,.22,1.76a4,4,0,0,0,.6,0l.61,0c.3,0,.59-.08.89-.14S124.2,71.41,124.51,71.32Zm21.61-8,.43,3.39a7.81,7.81,0,0,0,1.18.09,10.6,10.6,0,0,0,1.14-.06,8.69,8.69,0,0,0,1.06-.17c.33-.07.64-.15.93-.23a13,13,0,0,0,1.93-.73,4.84,4.84,0,0,0,1-.69,3.84,3.84,0,0,0,.63-.68,2.22,2.22,0,0,0,.33-.62,3.26,3.26,0,0,0,.11-.52,1.37,1.37,0,0,0,0-.37c0-.1,0-.16,0-.19v0l0-.09a1.45,1.45,0,0,0-.4-.61,2.23,2.23,0,0,0-.63-.39,3.62,3.62,0,0,0-.77-.2,7.38,7.38,0,0,0-.81-.07,10.72,10.72,0,0,0-2.1.22,3.82,3.82,0,0,0-.56.14l-.5.21c-.17.08-.33.17-.49.26Zm-2.28.18a4.83,4.83,0,0,0-1.39.28,4.59,4.59,0,0,0-.5.24,1.68,1.68,0,0,0-.43.36,1.44,1.44,0,0,0-.3.49,1.39,1.39,0,0,0-.1.63.49.49,0,0,0,0,.12,1.6,1.6,0,0,0,.07.28,2.33,2.33,0,0,0,.24.47,1.56,1.56,0,0,0,.49.46,2.44,2.44,0,0,0,.83.31,3.89,3.89,0,0,0,1.24,0l1.33-.18-.36-3.6Zm-.7,1.27a3,3,0,0,0-.51.18.9.9,0,0,0-.32.22.38.38,0,0,0-.09.13.44.44,0,0,0,0,.35.75.75,0,0,0,.3.34,1.62,1.62,0,0,0,.44.14,3,3,0,0,0,.84,0l.27,0-.15-1.41h-.33C143.47,64.73,143.31,64.75,143.14,64.79Zm7.37.53c.24-.07.46-.14.66-.22l.53-.2.36-.15.17-.08a4.3,4.3,0,0,0,1-.76,1.81,1.81,0,0,0,.39-.55.75.75,0,0,0,.07-.29V62.9l0-.06,0-.05a.77.77,0,0,0-.09-.13.74.74,0,0,0-.32-.18,3.68,3.68,0,0,0-1.19-.18,4.68,4.68,0,0,0-.66,0l-.57.07a4.58,4.58,0,0,0-.56.11h-.1a1.21,1.21,0,0,0-.29.07,2.85,2.85,0,0,0-.31.12l-.3.14-.23.12,0,0h0l-1.74,1,.22,1.76a4,4,0,0,0,.6,0l.61,0c.3,0,.59-.08.89-.14S150.2,65.41,150.51,65.32Z"/></g><g id="walkthrough_shoes-2" data-name="walkthrough_shoes"><path class="cls-4" d="M255.4,66.23l-1.92-2.83a6.67,6.67,0,0,1,.84-.84,9.54,9.54,0,0,1,.89-.71c.31-.21.61-.4.91-.57l.86-.44a12.22,12.22,0,0,1,1.93-.72,5.27,5.27,0,0,1,1.23-.15,4,4,0,0,1,.92.09,2.52,2.52,0,0,1,.66.26,2.55,2.55,0,0,1,.42.32.94.94,0,0,1,.23.29,1,1,0,0,1,.09.17h0l0,.1a1.5,1.5,0,0,1,.1.72,2.28,2.28,0,0,1-.22.7,3.51,3.51,0,0,1-.45.66,6.37,6.37,0,0,1-.57.59,10.82,10.82,0,0,1-1.72,1.21,2.81,2.81,0,0,1-.52.26,5,5,0,0,1-.5.17c-.19,0-.37.1-.55.13Zm-1.85,1.37a4.54,4.54,0,0,1-1.23.7,2.46,2.46,0,0,1-.53.15,1.77,1.77,0,0,1-.56,0,1.84,1.84,0,0,1-.55-.17,1.47,1.47,0,0,1-.49-.42.36.36,0,0,1-.07-.1,1.38,1.38,0,0,1-.13-.25,2.07,2.07,0,0,1-.13-.52,1.46,1.46,0,0,1,.07-.67,2.37,2.37,0,0,1,.42-.77,3.83,3.83,0,0,1,.92-.83L252.4,64,254.49,67Zm-9.93,8.24.43,3.39a7.81,7.81,0,0,0,1.18.09,10.6,10.6,0,0,0,1.14-.06,8.69,8.69,0,0,0,1.06-.17c.33-.07.64-.15.93-.23a13,13,0,0,0,1.93-.73,4.84,4.84,0,0,0,1-.69,3.84,3.84,0,0,0,.63-.68,2.22,2.22,0,0,0,.33-.62,3.26,3.26,0,0,0,.11-.52,1.37,1.37,0,0,0,0-.37c0-.1,0-.16,0-.19v0l0-.09a1.45,1.45,0,0,0-.4-.61,2.23,2.23,0,0,0-.63-.39,3.62,3.62,0,0,0-.77-.2,7.38,7.38,0,0,0-.81-.07,10.72,10.72,0,0,0-2.1.22A3.82,3.82,0,0,0,247,74l-.5.21c-.17.08-.33.17-.49.26Zm-2.28.18a4.83,4.83,0,0,0-1.39.28,4.59,4.59,0,0,0-.5.24,1.68,1.68,0,0,0-.43.36,1.44,1.44,0,0,0-.3.49,1.39,1.39,0,0,0-.1.63.49.49,0,0,0,0,.12,1.6,1.6,0,0,0,.07.28,2.33,2.33,0,0,0,.24.47,1.56,1.56,0,0,0,.49.46,2.44,2.44,0,0,0,.83.31,3.89,3.89,0,0,0,1.24,0l1.33-.18-.36-3.6Zm-.7,1.27a3,3,0,0,0-.51.18.9.9,0,0,0-.32.22.38.38,0,0,0-.09.13.44.44,0,0,0,0,.35.75.75,0,0,0,.3.34,1.62,1.62,0,0,0,.44.14,3,3,0,0,0,.84,0l.27,0-.15-1.41h-.33C241,77.23,240.81,77.25,240.64,77.29Zm7.37.53c.24-.07.46-.14.66-.22l.53-.2.36-.15.17-.08a4.3,4.3,0,0,0,1-.76,1.81,1.81,0,0,0,.39-.55.75.75,0,0,0,.07-.29V75.4l0-.06,0,0a.77.77,0,0,0-.09-.13.74.74,0,0,0-.32-.18,3.68,3.68,0,0,0-1.19-.18,4.68,4.68,0,0,0-.66,0l-.57.07a4.58,4.58,0,0,0-.56.11h-.1a1.21,1.21,0,0,0-.29.07,2.85,2.85,0,0,0-.31.12l-.3.14-.23.12,0,0h0l-1.74,1,.22,1.76a4,4,0,0,0,.6,0l.61,0c.3,0,.59-.08.89-.14S247.7,77.91,248,77.82Zm21.61-8,.43,3.39a7.81,7.81,0,0,0,1.18.09,10.6,10.6,0,0,0,1.14-.06,8.69,8.69,0,0,0,1.06-.17c.33-.07.64-.15.93-.23a13,13,0,0,0,1.93-.73,4.84,4.84,0,0,0,1-.69,3.84,3.84,0,0,0,.63-.68,2.22,2.22,0,0,0,.33-.62,3.26,3.26,0,0,0,.11-.52,1.37,1.37,0,0,0,0-.37c0-.1,0-.16,0-.19v0l0-.09a1.45,1.45,0,0,0-.4-.61,2.23,2.23,0,0,0-.63-.39,3.62,3.62,0,0,0-.77-.2,7.38,7.38,0,0,0-.81-.07,10.72,10.72,0,0,0-2.1.22A3.82,3.82,0,0,0,273,68l-.5.21c-.17.08-.33.17-.49.26Zm-2.28.18a4.83,4.83,0,0,0-1.39.28,4.59,4.59,0,0,0-.5.24,1.68,1.68,0,0,0-.43.36,1.44,1.44,0,0,0-.3.49,1.39,1.39,0,0,0-.1.63.49.49,0,0,0,0,.12,1.6,1.6,0,0,0,.07.28,2.33,2.33,0,0,0,.24.47,1.56,1.56,0,0,0,.49.46,2.44,2.44,0,0,0,.83.31,3.89,3.89,0,0,0,1.24,0l1.33-.18-.36-3.6Zm-.7,1.27a3,3,0,0,0-.51.18.9.9,0,0,0-.32.22.38.38,0,0,0-.09.13.44.44,0,0,0,0,.35.75.75,0,0,0,.3.34,1.62,1.62,0,0,0,.44.14,3,3,0,0,0,.84,0l.27,0-.15-1.41h-.33C267,71.23,266.81,71.25,266.64,71.29Zm7.37.53c.24-.07.46-.14.66-.22l.53-.2.36-.15.17-.08a4.3,4.3,0,0,0,1-.76,1.81,1.81,0,0,0,.39-.55.75.75,0,0,0,.07-.29V69.4l0-.06,0,0a.77.77,0,0,0-.09-.13.74.74,0,0,0-.32-.18,3.68,3.68,0,0,0-1.19-.18,4.68,4.68,0,0,0-.66,0l-.57.07a4.58,4.58,0,0,0-.56.11h-.1a1.21,1.21,0,0,0-.29.07,2.85,2.85,0,0,0-.31.12l-.3.14-.23.12,0,0h0l-1.74,1,.22,1.76a4,4,0,0,0,.6,0l.61,0c.3,0,.59-.08.89-.14S273.7,71.91,274,71.82Z"/></g><g id="walkthrough_shoes-3" data-name="walkthrough_shoes"><path class="cls-1" d="M181.74,59.66l1.15-4a9.62,9.62,0,0,1,1.43.13,13,13,0,0,1,2.58.69c.38.15.74.3,1.07.45a15.47,15.47,0,0,1,2.15,1.24,6.63,6.63,0,0,1,1.11,1,4.84,4.84,0,0,1,.62.93,2.65,2.65,0,0,1,.26.8,2.39,2.39,0,0,1,0,.64,1.58,1.58,0,0,1-.08.44l-.09.21v0l-.06.11a1.7,1.7,0,0,1-.59.65,2.64,2.64,0,0,1-.83.34,4.19,4.19,0,0,1-.95.1,8.09,8.09,0,0,1-1-.08,13.13,13.13,0,0,1-2.46-.66,3.91,3.91,0,0,1-.63-.28c-.21-.12-.4-.23-.56-.34s-.37-.27-.54-.41ZM179.05,59a5.56,5.56,0,0,1-1.61-.59,5,5,0,0,1-.55-.39,2.22,2.22,0,0,1-.45-.51,1.92,1.92,0,0,1-.26-.64,1.87,1.87,0,0,1,0-.78.93.93,0,0,1,0-.13,1.42,1.42,0,0,1,.13-.32,2.94,2.94,0,0,1,.38-.52,2,2,0,0,1,.67-.46,2.84,2.84,0,0,1,1.05-.2,4.86,4.86,0,0,1,1.48.22l1.55.48-1.12,4.22Zm28.69,13.66,1.15-4a9.62,9.62,0,0,1,1.43.13,13,13,0,0,1,2.58.69c.38.15.74.3,1.07.45a15.47,15.47,0,0,1,2.15,1.24,6.63,6.63,0,0,1,1.11,1,4.84,4.84,0,0,1,.62.93,2.65,2.65,0,0,1,.26.8,2.39,2.39,0,0,1,0,.64,1.58,1.58,0,0,1-.08.44l-.09.21v0l-.06.11a1.7,1.7,0,0,1-.59.65,2.64,2.64,0,0,1-.83.34,4.19,4.19,0,0,1-.95.1,8.09,8.09,0,0,1-1-.08,13.13,13.13,0,0,1-2.46-.66,3.91,3.91,0,0,1-.63-.28c-.21-.12-.4-.23-.56-.34s-.37-.27-.54-.41ZM205.05,72a5.56,5.56,0,0,1-1.61-.59,5,5,0,0,1-.55-.39,2.22,2.22,0,0,1-.45-.51,1.92,1.92,0,0,1-.26-.64,1.87,1.87,0,0,1,0-.78.93.93,0,0,1,0-.13,1.42,1.42,0,0,1,.13-.32,2.94,2.94,0,0,1,.38-.52,2,2,0,0,1,.67-.46,2.84,2.84,0,0,1,1.05-.2,4.86,4.86,0,0,1,1.48.22l1.55.48-1.12,4.22Zm-13.38-.68-2.82,3a10.74,10.74,0,0,0,.83,1.17,13,13,0,0,0,.94,1,10.73,10.73,0,0,0,1,.85c.33.26.64.49.94.69a15.68,15.68,0,0,0,2.16,1.23,6.77,6.77,0,0,0,1.44.42,4.45,4.45,0,0,0,1.12.06,2.43,2.43,0,0,0,.83-.18,2.51,2.51,0,0,0,.57-.3A1.23,1.23,0,0,0,199,79l.14-.18v0l.06-.11a1.65,1.65,0,0,0,.26-.84,2.48,2.48,0,0,0-.13-.88,4.22,4.22,0,0,0-.4-.87q-.27-.42-.57-.81a12.87,12.87,0,0,0-1.82-1.78,3.41,3.41,0,0,0-.57-.4c-.2-.12-.39-.22-.57-.31s-.42-.18-.63-.25Zm-1.93-2a5.85,5.85,0,0,0-1.33-1.08,4.34,4.34,0,0,0-.62-.28,1.84,1.84,0,0,0-.66-.12,2,2,0,0,0-.68.09,1.84,1.84,0,0,0-.67.41l-.1.1a1.2,1.2,0,0,0-.2.28,2.53,2.53,0,0,0-.26.59,1.93,1.93,0,0,0-.05.81,3.08,3.08,0,0,0,.35,1,5.13,5.13,0,0,0,.95,1.17l1.2,1.09,3.06-3.12Zm-1.72.33a3.94,3.94,0,0,0-.55-.34,1.41,1.41,0,0,0-.46-.13.62.62,0,0,0-.19,0,.57.57,0,0,0-.32.28.83.83,0,0,0-.08.54,1.65,1.65,0,0,0,.21.52,3.39,3.39,0,0,0,.66.77l.24.22,1.19-1.23-.05,0,0,0-.18-.19A4.25,4.25,0,0,0,188,69.67Zm5.2,7.25c.25.17.49.32.71.45l.6.34.42.21.2.1a5.68,5.68,0,0,0,1.51.37,2.29,2.29,0,0,0,.81-.07.87.87,0,0,0,.32-.15,1,1,0,0,0,.14-.13v0l0-.06,0,0a.68.68,0,0,0,.05-.19.94.94,0,0,0-.08-.44,4.33,4.33,0,0,0-.75-1.24,7.81,7.81,0,0,0-.55-.59c-.18-.18-.35-.33-.5-.47s-.33-.28-.53-.44l-.05,0,0,0a1.16,1.16,0,0,0-.29-.22c-.12-.07-.23-.14-.36-.2l-.35-.16-.3-.12h-.06L192,72.88l-1.46,1.57c.15.19.3.37.47.55l.52.53c.26.25.53.49.82.72S192.9,76.7,193.22,76.92Z"/></g></svg>