<svg id="Layer_1" data-name="Layer 1" xmlns="http://www.w3.org/2000/svg" viewBox="0 0 400 140"><defs><style>.cls-1{fill:#efefef;}.cls-2{fill:#2f2f2f;}.cls-3{fill:#5558ae;}.cls-4{fill:#c2c2c2;}.cls-5{fill:#939393;}</style></defs><title>Skype_Biz_5_400x140</title><rect class="cls-1" width="400" height="140"/><path class="cls-2" d="M272.06,90.28v-62A3.26,3.26,0,0,0,268.79,25H146.3A3.27,3.27,0,0,0,143,28.3v62a3.28,3.28,0,0,0,3.27,3.28H203v9.78H186.34v6.87H228v-6.87H211.32V93.56h57.47A3.27,3.27,0,0,0,272.06,90.28Z"/><rect class="cls-3" x="156" y="39" width="40" height="40"/><rect class="cls-4" x="258.52" y="70.16" width="30.98" height="50.46" rx="4.1" ry="4.1"/><path class="cls-1" d="M285.4,72.66a1.6,1.6,0,0,1,1.6,1.6v42.26a1.6,1.6,0,0,1-1.6,1.6H262.62a1.6,1.6,0,0,1-1.6-1.6V74.26a1.6,1.6,0,0,1,1.6-1.6H285.4m-14.64,42.22h6.5v-3.25h-6.5v3.25M285.4,67.66H262.62a6.61,6.61,0,0,0-6.6,6.6v42.26a6.61,6.61,0,0,0,6.6,6.6H285.4a6.61,6.61,0,0,0,6.6-6.6V74.26a6.61,6.61,0,0,0-6.6-6.6Z"/><rect class="cls-5" x="107.16" y="70.86" width="66.88" height="49.64" rx="4.59" ry="4.59"/><path class="cls-1" d="M169.46,73.36a2.09,2.09,0,0,1,2.08,2.09v40.46a2.08,2.08,0,0,1-2.08,2.09H111.75a2.08,2.08,0,0,1-2.09-2.09V75.45a2.09,2.09,0,0,1,2.09-2.09h57.71m-33.32,40.4h8.93v-4.47h-8.93v4.47m33.32-45.4H111.75a7.1,7.1,0,0,0-7.09,7.09v40.46a7.1,7.1,0,0,0,7.09,7.09h57.71a7.09,7.09,0,0,0,7.08-7.09V75.45a7.09,7.09,0,0,0-7.08-7.09Z"/></svg>