<svg id="Layer_1" data-name="Layer 1" xmlns="http://www.w3.org/2000/svg" viewBox="0 0 400 140"><defs><style>.cls-1{fill:#efefef;}.cls-2{fill:#0078d4;}.cls-3{fill:#fff;}.cls-4{fill:#c2c2c2;}.cls-5{fill:#2f2f2f;}.cls-6{fill:#d83b01;}.cls-7{fill:#00a4e8;}</style></defs><title>Skype_Biz_7_400x140</title><rect class="cls-1" width="400" height="140"/><g id="settings"><path class="cls-2" d="M238.2,72.25c0-.35,0-.69,0-1s0-.68,0-1,0-.68,0-1L253,59.94,243.9,38l-17,3.89C226,40.91,225,40,224,39l3.89-17L206,12.93l-9.22,14.83c-.34,0-.69,0-1,0s-.69,0-1,0-.69,0-1,0l-1,0-9.22-14.83L161.51,22l3.9,17c-1,.92-1.95,1.87-2.87,2.86l-17-3.89-9.1,21.93,14.82,9.21c0,.35,0,.69,0,1s0,.69,0,1,0,.69,0,1,0,.68,0,1l-14.82,9.21,9.1,21.93,17-3.89c.92,1,1.87,1.94,2.87,2.86l-3.9,17,21.93,9.11,9.22-14.83,1,0c.34,0,.68,0,1,0s.69,0,1,0,.69,0,1,0L206,129.5l21.92-9.11-3.89-17c1-.92,1.95-1.87,2.86-2.86l17,3.89L253,82.49l-14.83-9.21C238.17,72.93,238.18,72.59,238.2,72.25Z"/></g><rect class="cls-1" x="153.43" y="34" width="81.14" height="71"/><rect class="cls-3" x="178.06" y="55.73" width="28.98" height="42.02"/><g id="skype_video_call"><path class="cls-4" d="M157.52,93.82h22.81a13.45,13.45,0,0,1,.7-3.38,4.53,4.53,0,1,1,1.39-3.26c0,.14,0,.28,0,.43a13,13,0,0,1,1.82-2.34,13.83,13.83,0,0,1,4.31-2.89,13.46,13.46,0,0,1,5.36-1.06,13.85,13.85,0,0,1,5.39,1,13.4,13.4,0,0,1,4.32,2.88,12.93,12.93,0,0,1,1.59,1.94h0a4.59,4.59,0,1,1,1.62,3.45,13.87,13.87,0,0,1,.62,3.19h22.81V45.18h-72.7Zm50.8-43.24h16.34V66.91H208.32Zm-22.81,13.6a9.14,9.14,0,0,1,4.83-4.85,9,9,0,0,1,7,0,9.09,9.09,0,0,1,4.85,4.85,9,9,0,0,1,0,7,9.14,9.14,0,0,1-4.85,4.83,9,9,0,0,1-7,0,9.2,9.2,0,0,1-4.83-4.83,8.85,8.85,0,0,1,0-7Z"/><polygon class="cls-5" points="207.41 93.82 180.33 93.82 157.52 93.82 157.52 100.63 230.22 100.63 230.22 93.82 207.41 93.82"/><rect class="cls-5" x="157.52" y="38.37" width="72.71" height="6.81"/><path class="cls-6" d="M177.88,82.64a4.55,4.55,0,1,0,4.5,5c0-.15,0-.29,0-.43A4.54,4.54,0,0,0,177.88,82.64Z"/><circle class="cls-4" cx="193.87" cy="87.18" r="4.54"/><path class="cls-5" d="M209.71,82.64a4.54,4.54,0,0,0-4.54,4.54h0a4.54,4.54,0,1,0,4.54-4.54Z"/></g><rect class="cls-7" x="208.49" y="49.94" width="15.94" height="17.39"/></svg>