<svg id="Layer_1" data-name="Layer 1" xmlns="http://www.w3.org/2000/svg" viewBox="0 0 400 140"><defs><style>.cls-1{fill:#efefef;}.cls-2{fill:#c2c2c2;}.cls-3{fill:#2f2f2f;}.cls-4{fill:#fff;}.cls-5{fill:#0078d4;}</style></defs><title>Skype_Biz_2_400x140</title><rect class="cls-1" width="400" height="140"/><g id="cloud"><path class="cls-2" d="M321.13,84.4A22.86,22.86,0,0,0,316,77a23.62,23.62,0,0,0-7.65-4.87,25.06,25.06,0,0,0-9.29-1.73,40.57,40.57,0,0,0-4.64-13.88,41.43,41.43,0,0,0-8.88-11.11,40.24,40.24,0,0,0-12.15-7.33,39.84,39.84,0,0,0-14.48-2.64,39.31,39.31,0,0,0-13.34,2.27A42.33,42.33,0,0,0,234,44a40.47,40.47,0,0,0-9,9.65,39.72,39.72,0,0,0-5.51,12.29,30.12,30.12,0,0,0-8.84-5.32,27.64,27.64,0,0,0-10.1-1.87A28.67,28.67,0,0,0,189.29,61a29,29,0,0,0-15.52,15.53,29.32,29.32,0,0,0,0,22.67,29,29,0,0,0,15.52,15.53A28.67,28.67,0,0,0,200.63,117h99.06a22.73,22.73,0,0,0,9.06-1.82,23.37,23.37,0,0,0,7.42-5,23.7,23.7,0,0,0,5-7.42,23.74,23.74,0,0,0-.05-18.35Z"/></g><g id="settings_office_365"><path class="cls-3" d="M305.79,93.45a1.93,1.93,0,0,0,0-.24,2,2,0,0,0,0-.25c0-.08,0-.16,0-.25l3.56-2.21-2.18-5.25-4.08.93q-.33-.36-.69-.69l.94-4.07-5.26-2.18-2.21,3.55h-1l-2.21-3.55-5.25,2.18.93,4.07a8.84,8.84,0,0,0-.68.69l-4.08-.93L281.4,90.5,285,92.71a2,2,0,0,1,0,.25v.49a2.18,2.18,0,0,1,0,.25l-3.55,2.21,2.18,5.26,4.08-.94a8.84,8.84,0,0,0,.68.69l-.93,4.08,5.25,2.18,2.21-3.56h1l2.21,3.56,5.26-2.18-.94-4.08q.36-.33.69-.69l4.08.94,2.18-5.26-3.56-2.21C305.78,93.62,305.79,93.54,305.79,93.45Zm-5.67,1.77A5.11,5.11,0,0,1,297.38,98a5.05,5.05,0,0,1-2,.41,5,5,0,0,1-2-.41,5.19,5.19,0,0,1-1.64-1.1,5.28,5.28,0,0,1-1.11-1.64,5,5,0,0,1-.4-2,5,5,0,0,1,.4-2,5.23,5.23,0,0,1,2.75-2.75,5,5,0,0,1,2-.4,5,5,0,0,1,2,.4A5.28,5.28,0,0,1,299,89.56a5.19,5.19,0,0,1,1.1,1.64,5,5,0,0,1,.41,2A5.05,5.05,0,0,1,300.12,95.22Z"/></g><g id="settings_office_365-2" data-name="settings_office_365"><path class="cls-4" d="M279.56,105.15v-.32l1.51-.94-.93-2.24-1.73.4-.3-.29.4-1.74-2.24-.93-.94,1.51h-.42l-1-1.51-2.24.93.4,1.74a4,4,0,0,0-.29.29l-1.74-.4-.93,2.24,1.52.94a.41.41,0,0,1,0,.11v.21a.34.34,0,0,1,0,.1l-1.52,1,.93,2.24,1.74-.4a4,4,0,0,0,.29.29l-.4,1.74L274,111l1-1.52h.42l.94,1.52,2.24-.93-.4-1.74.3-.29,1.73.4.93-2.24-1.51-1Zm-2.42.75a2.19,2.19,0,0,1-1.17,1.17,2,2,0,0,1-.85.17,2.06,2.06,0,0,1-.86-.17,2.19,2.19,0,0,1-1.17-1.17,2.06,2.06,0,0,1-.17-.86,2,2,0,0,1,.17-.85,2.19,2.19,0,0,1,1.17-1.17,2.07,2.07,0,0,1,.86-.18,2,2,0,0,1,.85.18,2.19,2.19,0,0,1,1.17,1.17,2,2,0,0,1,.18.85A2.07,2.07,0,0,1,277.14,105.9Z"/></g><g id="server_generic"><path class="cls-3" d="M96.1,122h45.68a3.21,3.21,0,0,0,3.21-3.21V34a3.21,3.21,0,0,0-3.21-3.21H96.1A3.21,3.21,0,0,0,92.89,34v84.75A3.21,3.21,0,0,0,96.1,122Zm16.33-13h13v6.51h-13Z"/></g><path class="cls-5" d="M160.25,104.1a26.5,26.5,0,1,1,26.5-26.5A26.53,26.53,0,0,1,160.25,104.1Z"/><path class="cls-1" d="M160.25,53.6a24,24,0,1,1-24,24,24,24,0,0,1,24-24m0-5a29,29,0,1,0,29,29,29,29,0,0,0-29-29Z"/><path class="cls-4" d="M169.18,65.1v5A10.48,10.48,0,0,0,167.27,68a24.45,24.45,0,0,0-2.37-1.56,12.4,12.4,0,0,0-2.68-1,12,12,0,0,0-2.86-.34,12.41,12.41,0,0,0-4.36.78,11.87,11.87,0,0,0-3.71,2.21,10.53,10.53,0,0,0-2.58,3.39,9.72,9.72,0,0,0-1,4.33h3.57a6.35,6.35,0,0,1,.68-2.93,7.33,7.33,0,0,1,1.82-2.24,8.36,8.36,0,0,1,2.58-1.45,8.63,8.63,0,0,1,3-.52,8.91,8.91,0,0,1,3.92.92,7.59,7.59,0,0,1,3,2.65H162v3.57h10.71V65.1Z"/><path class="cls-4" d="M169.18,79.39a6.1,6.1,0,0,1-.7,2.93,7.22,7.22,0,0,1-1.83,2.24l-.1.08A8.69,8.69,0,0,1,164.09,86a8.53,8.53,0,0,1-3,.52,8.88,8.88,0,0,1-3.92-.92,7.69,7.69,0,0,1-3-2.65h4.27V79.39H147.75V90.1h3.57v-5a10.48,10.48,0,0,0,1.91,2.13,12.13,12.13,0,0,0,2.37,1.56,13,13,0,0,0,2.68,1,12.57,12.57,0,0,0,7.22-.45c.37-.14.7-.33,1.05-.5a12.28,12.28,0,0,0,2.66-1.7,10.68,10.68,0,0,0,2.58-3.4,9.72,9.72,0,0,0,1-4.33Z"/></svg>