<svg id="Layer_1" data-name="Layer 1" xmlns="http://www.w3.org/2000/svg" viewBox="0 0 400 140"><defs><style>.cls-1{fill:#efefef;}.cls-2{fill:#0078d4;}.cls-3{fill:#2f2f2f;}.cls-4{fill:#c2c2c2;}.cls-5{fill:#d2d2d2;}.cls-6{fill:#d73910;}</style></defs><title>Skype_Biz_8_400x140</title><rect class="cls-1" width="400" height="140"/><rect class="cls-2" x="38.12" y="61" width="320" height="30"/><g id="education_tutorial"><path class="cls-3" d="M172.71,85.77V84.54c0-1.08,0-2.08,0-3A25.35,25.35,0,0,1,173,78.6a17.22,17.22,0,0,1,.58-2.48l.7-2.25,17.32,8.66,17.28-8.63.71,2.22.09.26c.08.23.16.46.22.69a19,19,0,0,1,.61,4.75v4l-18.91,9.48Z"/><path class="cls-1" d="M175.5,76.72,190.1,84l1.51.76,1.52-.76,14.56-7.28c.09.29.21.56.29.85a16.77,16.77,0,0,1,.54,4.24v2.72L191.61,93l-16.9-8.48c0-1.06,0-2,0-3A23.41,23.41,0,0,1,175,78.9a15.29,15.29,0,0,1,.51-2.18M173.08,71l-1.39,4.5A18.71,18.71,0,0,0,171,78.3a27.48,27.48,0,0,0-.28,3.16c0,1,0,2,0,3.08V87l2.21,1.11,16.9,8.47,1.79.9,1.8-.9,16.9-8.47L212.52,87V81.82a21.05,21.05,0,0,0-.67-5.25c-.1-.35-.2-.65-.28-.87l-.07-.19-1.43-4.44-4.17,2.08L191.61,80.3l-14.32-7.16L173.08,71Z"/><path class="cls-3" d="M172.16,85.85a3.93,3.93,0,0,0-.83-.61,3.4,3.4,0,0,0-3.38,0,3.93,3.93,0,0,0-.83.61,3.44,3.44,0,0,0-1.06,2.52V99.12h7.16V88.37A3.44,3.44,0,0,0,172.16,85.85Z"/><path class="cls-4" d="M166,70.38l-5.85-2.93,31.51-15.76,31.52,15.76L191.61,83.21l-18.28-9.14V88.66l-3-1.68a1.42,1.42,0,0,0-1.42,0l-3,1.68Z"/><path class="cls-1" d="M191.61,53.93l27,13.52-12.31,6.16L191.61,81l-14.73-7.36-5.55-2.78h0V85.24a3.4,3.4,0,0,0-3.38,0V69.14h0l-3.38-1.69,27-13.52m0-4.47-1.78.89L162.78,63.87l-7.15,3.58L162.78,71l1.17.58V92.08l5.69-3.2,5.69,3.2V77.3l14.5,7.25,1.78.9,1.79-.9,14.74-7.37L220.45,71l7.15-3.58-7.15-3.58-27-13.52-1.79-.89Z"/></g><g id="call_center_agent"><path class="cls-5" d="M129.15,72.47h3.39a2.3,2.3,0,0,0,1-.2,2.5,2.5,0,0,0,.81-.54,2.73,2.73,0,0,0,.55-.79,2.17,2.17,0,0,0,.22-1,1.71,1.71,0,0,0,.34-.13,13.09,13.09,0,0,0,3.81-2.54,10.27,10.27,0,0,0,2.53-3.81.66.66,0,0,0,.08-.34.82.82,0,0,0-.23-.58.84.84,0,0,0-.61-.24.87.87,0,0,0-.8.53A12.82,12.82,0,0,1,138,66.11a8.18,8.18,0,0,1-3.26,2.19l-.24.07a3,3,0,0,0-.88-.71,2.34,2.34,0,0,0-1.1-.26h-3.39a2.54,2.54,0,0,0,0,5.07Z"/><path class="cls-4" d="M130,79.55a16.3,16.3,0,0,1-7-1.49,16.71,16.71,0,0,1-5.4-4,18.2,18.2,0,0,1-3.46-5.75,19.77,19.77,0,0,1,0-13.73,18.2,18.2,0,0,1,3.46-5.75,16.88,16.88,0,0,1,5.4-4,16.45,16.45,0,0,1,7-1.48,16.77,16.77,0,0,1,5.28.83,16.35,16.35,0,0,1,4.57,2.35,16.62,16.62,0,0,1,3.63,3.62A18,18,0,0,1,146,54.88l.11.33V67.74l-.11.33a18,18,0,0,1-2.47,4.68,16.62,16.62,0,0,1-3.63,3.62,16.35,16.35,0,0,1-4.57,2.35A16.77,16.77,0,0,1,130,79.55Z"/><path class="cls-1" d="M130,45.4a14.52,14.52,0,0,1,4.65.73,14.16,14.16,0,0,1,4,2.06,14.94,14.94,0,0,1,3.2,3.2,15.72,15.72,0,0,1,2.19,4.16V67.4a15.72,15.72,0,0,1-2.19,4.16,14.94,14.94,0,0,1-3.2,3.2,14.16,14.16,0,0,1-4,2.06,14.52,14.52,0,0,1-4.65.73,14.21,14.21,0,0,1-6.13-1.3,14.6,14.6,0,0,1-4.76-3.5A16.05,16.05,0,0,1,116,67.63a17.77,17.77,0,0,1,0-12.31,16.05,16.05,0,0,1,3.08-5.12,14.6,14.6,0,0,1,4.76-3.5A14.21,14.21,0,0,1,130,45.4m0-4a18.36,18.36,0,0,0-7.83,1.67,18.73,18.73,0,0,0-6,4.46,20,20,0,0,0-3.84,6.37,21.78,21.78,0,0,0,0,15.15,20,20,0,0,0,3.84,6.37,18.73,18.73,0,0,0,6,4.46A18.36,18.36,0,0,0,130,81.55,18.57,18.57,0,0,0,141,78a19.2,19.2,0,0,0,4.05-4,20.16,20.16,0,0,0,2.74-5.2l.23-.65V54.86l-.23-.65A19.93,19.93,0,0,0,145.09,49,19,19,0,0,0,141,45a18.57,18.57,0,0,0-11-3.56Z"/><path class="cls-4" d="M104.47,104.54l.4-2.33a27,27,0,0,1,3-8.8A21.81,21.81,0,0,1,113.4,87a23.12,23.12,0,0,1,7.54-3.82,33.46,33.46,0,0,1,18.12,0A23.12,23.12,0,0,1,146.6,87a21.81,21.81,0,0,1,5.51,6.41,26.82,26.82,0,0,1,3,8.8l.4,2.33Z"/><path class="cls-1" d="M130,83.93a29.34,29.34,0,0,1,8.49,1.17,20.6,20.6,0,0,1,6.88,3.49,19.45,19.45,0,0,1,5,5.81,24.67,24.67,0,0,1,2.79,8.14H106.84a24.67,24.67,0,0,1,2.79-8.14,19.45,19.45,0,0,1,5-5.81,20.6,20.6,0,0,1,6.88-3.49A29.34,29.34,0,0,1,130,83.93m0-4a33.71,33.71,0,0,0-9.63,1.33,25.14,25.14,0,0,0-8.19,4.16,23.47,23.47,0,0,0-6,7,28.46,28.46,0,0,0-3.26,9.45l-.8,4.67h55.8l-.8-4.67a28.46,28.46,0,0,0-3.26-9.45,23.58,23.58,0,0,0-6-7,25.29,25.29,0,0,0-8.2-4.16A33.71,33.71,0,0,0,130,79.93Z"/><path class="cls-3" d="M142.06,69.4V53.55h4.86a3.72,3.72,0,0,1,3.69,3.7V65.7a3.72,3.72,0,0,1-3.69,3.7Z"/><path class="cls-1" d="M146.92,55.55a1.73,1.73,0,0,1,1.69,1.7V65.7a1.73,1.73,0,0,1-1.69,1.7h-2.86V55.55h2.86m0-4h-6.86V71.4h6.86a5.72,5.72,0,0,0,5.69-5.7V57.25a5.72,5.72,0,0,0-5.69-5.7Z"/></g><path class="cls-4" d="M135.88,47s8,1,9.18,12.44C146.15,70,140.65,73,140.65,73l-5.77-17Z"/><path class="cls-3" d="M128.36,70.14a2.41,2.41,0,0,1,1.79-.74h3.39a2.34,2.34,0,0,1,1.1.26,3,3,0,0,1,.88.71l.24-.07A8.18,8.18,0,0,0,139,68.11a12.82,12.82,0,0,0,2.18-3.26.87.87,0,0,1,.8-.53.84.84,0,0,1,.61.24.82.82,0,0,1,.23.58.66.66,0,0,1-.08.34,10.27,10.27,0,0,1-2.53,3.81,13.09,13.09,0,0,1-3.81,2.54,1.71,1.71,0,0,1-.34.13,2.17,2.17,0,0,1-.22,1,2.73,2.73,0,0,1-.55.79,2.5,2.5,0,0,1-.81.54,2.3,2.3,0,0,1-1,.2h-3.39a2.54,2.54,0,0,1-1.79-4.33Z"/><polygon class="cls-1" points="237.88 54 237.88 95 273.88 95 273.88 54 261.88 54 257.88 50 255.88 48 253.88 50 249.88 50 249.88 54 237.88 54"/><path d="M232.48,101.12V47.83h15.84a8.29,8.29,0,0,1,15.82,0H280v53.29Zm38.63-8.86V56.69h-2.72v7.73H244.07V56.69h-2.73V92.26Z"/><path class="cls-1" d="M256.23,44.53a5.8,5.8,0,0,1,5.79,5.8h15.46V98.62H235V50.33h15.45a5.8,5.8,0,0,1,5.8-5.8m-5.8,13.53H262V54.19h-3.86V50.33a1.94,1.94,0,0,0-3.87,0v3.86h-3.86v3.87m-3.86,3.86V54.19h-7.73V94.76h34.77V54.19h-7.72v7.73H246.57m9.66-22.39a10.82,10.82,0,0,0-9.57,5.8H230v58.29h52.5V45.33H265.79a10.8,10.8,0,0,0-9.56-5.8ZM243.84,66.92h24.77V89.76H243.84V66.92Z"/><g id="list_123"><rect class="cls-5" x="252.9" y="85.62" width="12.87" height="2.14"/><rect class="cls-5" x="252.9" y="77.06" width="12.87" height="2.14"/><rect class="cls-5" x="252.9" y="68.49" width="12.87" height="2.14"/><rect class="cls-3" x="252.9" y="77.06" width="12.87" height="2.14"/><rect class="cls-3" x="252.9" y="85.62" width="12.87" height="2.14"/><rect class="cls-3" x="252.9" y="68.49" width="12.87" height="2.14"/><path class="cls-6" d="M247.37,67.29c.34-.12.67-.26,1-.4a4.85,4.85,0,0,0,.91-.56h.82v6.44H248.7V67.91a3.08,3.08,0,0,1-.62.36,1.91,1.91,0,0,1-.71.17Z"/><path class="cls-6" d="M246.63,80.65a1.67,1.67,0,0,1,.16-.65,2.79,2.79,0,0,1,.68-1c.29-.26.58-.51.87-.73a6.11,6.11,0,0,0,.74-.67,1.1,1.1,0,0,0,.32-.78.75.75,0,0,0-.25-.64,1.13,1.13,0,0,0-.67-.18,2,2,0,0,0-.83.18,3.14,3.14,0,0,0-.73.47V75.47a3.37,3.37,0,0,1,1.86-.54,2.9,2.9,0,0,1,.79.11,1.73,1.73,0,0,1,.66.34,1.61,1.61,0,0,1,.43.56,1.73,1.73,0,0,1,.16.78,2,2,0,0,1-.2.91,3,3,0,0,1-.49.71,4.3,4.3,0,0,1-.65.55l-.64.45a3.68,3.68,0,0,0-.5.42.63.63,0,0,0-.2.42h2.68v1.16h-4.2C246.62,81.08,246.62,80.85,246.63,80.65Z"/><path class="cls-6" d="M249.09,87.54a1.3,1.3,0,0,0-.53-.25,2.74,2.74,0,0,0-.64-.08h-.57V86.14h.53a2.72,2.72,0,0,0,.58-.06,1,1,0,0,0,.47-.22.67.67,0,0,0,.19-.52.67.67,0,0,0-.27-.61,1.29,1.29,0,0,0-.66-.16A2.13,2.13,0,0,0,247,85V83.83a3,3,0,0,1,.76-.26,4.22,4.22,0,0,1,.79-.07,3.72,3.72,0,0,1,.74.08,2,2,0,0,1,.65.28,1.57,1.57,0,0,1,.47.49,1.37,1.37,0,0,1,.18.72,1.48,1.48,0,0,1-.32,1,1.78,1.78,0,0,1-.93.53v0a1.83,1.83,0,0,1,1,.45,1.27,1.27,0,0,1,.42,1,1.74,1.74,0,0,1-.21.88,1.67,1.67,0,0,1-.55.6,2.33,2.33,0,0,1-.77.33,4,4,0,0,1-.9.11,4.43,4.43,0,0,1-.81-.07,2.45,2.45,0,0,1-.78-.25V88.48a2.09,2.09,0,0,0,.7.35,2.54,2.54,0,0,0,.78.12,1.65,1.65,0,0,0,.77-.18.72.72,0,0,0,.35-.69A.66.66,0,0,0,249.09,87.54Z"/><path class="cls-6" d="M248.7,67.91v4.86h1.38V66.33h-.82a4.85,4.85,0,0,1-.91.56c-.31.14-.64.28-1,.4v1.15a1.91,1.91,0,0,0,.71-.17A3.08,3.08,0,0,0,248.7,67.91Z"/><path class="cls-6" d="M248.19,89a2.54,2.54,0,0,1-.78-.12,2.09,2.09,0,0,1-.7-.35V89.7a2.45,2.45,0,0,0,.78.25,4.43,4.43,0,0,0,.81.07,4,4,0,0,0,.9-.11,2.33,2.33,0,0,0,.77-.33,1.67,1.67,0,0,0,.55-.6,1.74,1.74,0,0,0,.21-.88,1.27,1.27,0,0,0-.42-1,1.83,1.83,0,0,0-1-.45v0a1.78,1.78,0,0,0,.93-.53,1.48,1.48,0,0,0,.32-1,1.37,1.37,0,0,0-.18-.72,1.57,1.57,0,0,0-.47-.49,2,2,0,0,0-.65-.28,3.72,3.72,0,0,0-.74-.08,4.22,4.22,0,0,0-.79.07,3,3,0,0,0-.76.26V85a2.13,2.13,0,0,1,1.24-.4,1.29,1.29,0,0,1,.66.16.67.67,0,0,1,.27.61.67.67,0,0,1-.19.52,1,1,0,0,1-.47.22,2.72,2.72,0,0,1-.58.06h-.53v1.07h.57a2.74,2.74,0,0,1,.64.08,1.3,1.3,0,0,1,.53.25.66.66,0,0,1,.22.54.72.72,0,0,1-.35.69A1.65,1.65,0,0,1,248.19,89Z"/><path class="cls-6" d="M250.82,80.18h-2.68a.63.63,0,0,1,.2-.42,3.68,3.68,0,0,1,.5-.42l.64-.45a4.3,4.3,0,0,0,.65-.55,3,3,0,0,0,.49-.71,2,2,0,0,0,.2-.91,1.73,1.73,0,0,0-.16-.78,1.61,1.61,0,0,0-.43-.56,1.73,1.73,0,0,0-.66-.34,2.9,2.9,0,0,0-.79-.11,3.37,3.37,0,0,0-1.86.54v1.22a3.14,3.14,0,0,1,.73-.47,2,2,0,0,1,.83-.18,1.13,1.13,0,0,1,.67.18.75.75,0,0,1,.25.64,1.1,1.1,0,0,1-.32.78,6.11,6.11,0,0,1-.74.67c-.29.22-.58.47-.87.73a2.79,2.79,0,0,0-.68,1,1.67,1.67,0,0,0-.16.65c0,.2,0,.43,0,.69h4.2Z"/></g></svg>