<svg id="Layer_1" data-name="Layer 1" xmlns="http://www.w3.org/2000/svg" viewBox="0 0 400 140"><defs><style>.cls-1{fill:#efefef;}.cls-2{fill:#2f2f2f;}.cls-3{fill:#c2c2c2;}.cls-4{fill:#fff;}.cls-5{fill:#0078d7;}.cls-6{opacity:0.25;}</style></defs><title>Skype_Biz_4_400x140</title><rect class="cls-1" width="400" height="140"/><g id="book_journal"><path class="cls-2" d="M189.63,109.36a22.85,22.85,0,0,0-4.87-1.63,26.34,26.34,0,0,0-5.56-.55h-47V32.82h-8.32V115.5h74.39a37.44,37.44,0,0,0-4.23-3.54A27.46,27.46,0,0,0,189.63,109.36Z"/><path class="cls-3" d="M187.78,99.93a33.37,33.37,0,0,1,8.06,3.22V30.48A25.43,25.43,0,0,0,188,26a26.14,26.14,0,0,0-8.84-1.53H140.56V98.86H179.2A35,35,0,0,1,187.78,99.93Z"/><path class="cls-2" d="M267.76,32.82v74.36h-47a26.41,26.41,0,0,0-5.56.55,22.85,22.85,0,0,0-4.87,1.63,27.46,27.46,0,0,0-4.45,2.6,37.44,37.44,0,0,0-4.23,3.54h74.39V32.82Z"/><path class="cls-4" d="M220.58,24.52l.22,0h38.64V98.86H220.8a35,35,0,0,0-8.58,1.07,33.53,33.53,0,0,0-8.06,3.22V30.48A25.43,25.43,0,0,1,212,26c.48-.17,1-.24,1.46-.39Z"/></g><g id="Titles"><path class="cls-5" d="M178.28,88.2a5.44,5.44,0,0,1-5.44-5,4.62,4.62,0,0,1,0-1.23l5.72-34.77,0-.1A6.65,6.65,0,0,1,185.1,42h38.48a5.56,5.56,0,0,1,5.5,5,5.92,5.92,0,0,1,0,1.11l0,.17L223.29,83l0,.12a6.69,6.69,0,0,1-6.5,5.07H178.28Z"/><path class="cls-1" d="M223.58,44.92a2.57,2.57,0,0,1,2.56,2.34,2.53,2.53,0,0,1,0,.55L220.4,82.4a3.73,3.73,0,0,1-3.63,2.84H178.28A2.52,2.52,0,0,1,175.77,83a3,3,0,0,1,0-.6l5.7-34.55a3.73,3.73,0,0,1,3.63-2.89h38.48m0-5.91H185.12a9.59,9.59,0,0,0-9.4,7.45l0,.18,0,.2L170,81.4l0,.12v.12a8,8,0,0,0,0,2,8.37,8.37,0,0,0,8.37,7.56h38.46a9.63,9.63,0,0,0,9.39-7.31l.06-.23,0-.23L232,48.77l0-.16,0-.16a8,8,0,0,0,0-1.76A8.53,8.53,0,0,0,223.58,39Z"/><path class="cls-4" d="M189.1,79.68a2,2,0,0,1-1.16-3.5l16.43-12.11L192.49,53a2,2,0,0,1,0-2.74h0a2,2,0,0,1,2.78-.07l13.56,12.72a2,2,0,0,1,0,2.78h0l-.2.17L190.29,79.28A2,2,0,0,1,189.1,79.68Z"/><path class="cls-4" d="M210,79.56H201a2,2,0,0,1-.88-3.84,2.22,2.22,0,0,1,.63,0H210a2,2,0,0,1,.24,3.88Z"/><g class="cls-6"><path class="cls-4" d="M223.15,44.73H184.86a3.91,3.91,0,0,0-3.24,1.73c9.52,9.07,28.67,27.8,37.81,36.71a3.35,3.35,0,0,0,.79-1.57l5.71-34a2.54,2.54,0,0,0-2.18-2.85h0A1.89,1.89,0,0,0,223.15,44.73Z"/></g></g></svg>