<svg id="Layer_1" data-name="Layer 1" xmlns="http://www.w3.org/2000/svg" viewBox="0 0 400 140"><defs><style>.cls-1{fill:#efefef;}.cls-2{fill:#939393;}.cls-3{fill:#c2c2c2;}.cls-4{fill:#2f2f2f;}.cls-5{fill:#0078d4;}.cls-6{fill:#d2d2d2;}.cls-7{fill:#e6e6e6;}.cls-8{fill:#fff;}</style></defs><title>Skype_Biz_1_400x140</title><rect class="cls-1" width="400" height="140"/><g id="cloud"><path class="cls-2" d="M71.49,58.31a17.76,17.76,0,0,1-4.25-5.92,17.44,17.44,0,0,1-1.5-7.11,17.24,17.24,0,0,1,1.4-6.91,17.8,17.8,0,0,1,9.43-9.44,17.48,17.48,0,0,1,6.91-1.39,16.36,16.36,0,0,1,4.78.7q.54.17,1.08.36A20.4,20.4,0,0,1,91,24.24a21.5,21.5,0,0,1,11.26-10.42,21,21,0,0,1,7.93-1.52,21.23,21.23,0,0,1,7.39,1.31,22.17,22.17,0,0,1,6.35,3.63,21.09,21.09,0,0,1,4.75,5.57,21.72,21.72,0,0,1,2.66,7l.52,2.64-2.67.33a30.91,30.91,0,0,0-7,1.71,32.17,32.17,0,0,0-6.47,3.26,33.71,33.71,0,0,0-5.6,4.59A26.89,26.89,0,0,0,105.85,48l-1,1.86-2-.74a20.3,20.3,0,0,0-3.82-1,26.28,26.28,0,0,0-4.07-.32,24.12,24.12,0,0,0-11.09,2.67,23.7,23.7,0,0,0-8.6,7.47l-1.64,2.32Z"/><path class="cls-1" d="M110.15,14.8A18.4,18.4,0,0,1,116.67,16a19.33,19.33,0,0,1,5.63,3.21,18.76,18.76,0,0,1,4.2,4.91,19.46,19.46,0,0,1,2.35,6.2,33.12,33.12,0,0,0-7.56,1.84,35.06,35.06,0,0,0-7,3.52,35.54,35.54,0,0,0-6,4.93,29.1,29.1,0,0,0-4.64,6.2,22.05,22.05,0,0,0-4.29-1.13,27.7,27.7,0,0,0-4.47-.36,26.37,26.37,0,0,0-12.23,2.95,26,26,0,0,0-9.5,8.24,15.37,15.37,0,0,1-3.66-5.09,15.25,15.25,0,0,1-.09-12,15.49,15.49,0,0,1,3.28-4.86,15.31,15.31,0,0,1,4.85-3.27A14.87,14.87,0,0,1,83.48,30a14.12,14.12,0,0,1,4,.59,18.85,18.85,0,0,1,3.75,1.61,18.23,18.23,0,0,1,1.91-6.87,19.32,19.32,0,0,1,4.14-5.54,18.77,18.77,0,0,1,5.83-3.69,18.27,18.27,0,0,1,7-1.34m0-5a23.49,23.49,0,0,0-8.87,1.7,24.15,24.15,0,0,0-7.36,4.67,24.67,24.67,0,0,0-5.2,6.94,24,24,0,0,0-1,2.39,19,19,0,0,0-4.2-.46,19.84,19.84,0,0,0-7.89,1.6A20.31,20.31,0,0,0,64.84,37.38a20.24,20.24,0,0,0,.11,16,20.34,20.34,0,0,0,4.84,6.73L74,64l3.3-4.65A20.8,20.8,0,0,1,85,52.68a21.21,21.21,0,0,1,10-2.4,23.59,23.59,0,0,1,3.67.29,17.81,17.81,0,0,1,3.35.89l4,1.48L108,49.21a24.57,24.57,0,0,1,3.85-5.14,31,31,0,0,1,5.18-4.25,30,30,0,0,1,6-3,29,29,0,0,1,6.44-1.57l5.33-.66-1-5.27a24.12,24.12,0,0,0-3-7.78,23.6,23.6,0,0,0-5.32-6.22,24.74,24.74,0,0,0-7-4,23.67,23.67,0,0,0-8.27-1.47Z"/><path class="cls-3" d="M94.91,93.5a21.21,21.21,0,0,1-8.39-1.69,21.57,21.57,0,0,1-6.86-4.61,22,22,0,0,1-4.61-6.85,21.72,21.72,0,0,1,0-16.8A21.49,21.49,0,0,1,86.52,52.09a21.28,21.28,0,0,1,8.39-1.69,20.76,20.76,0,0,1,7.51,1.39A21.56,21.56,0,0,1,106,53.56a28.54,28.54,0,0,1,2.83-5.39,29.1,29.1,0,0,1,6.42-6.89,30.07,30.07,0,0,1,8.2-4.49A28.42,28.42,0,0,1,133,35.16a28.7,28.7,0,0,1,19.07,7.14,29.59,29.59,0,0,1,6.34,7.93,29.15,29.15,0,0,1,3,7.9,18.36,18.36,0,0,1,4.88,1.2,17.69,17.69,0,0,1,5.81,3.7,17.78,17.78,0,0,1,4,19.64,17.89,17.89,0,0,1-9.43,9.44,17.48,17.48,0,0,1-6.91,1.39Z"/><path class="cls-1" d="M133,37.66a26.16,26.16,0,0,1,17.42,6.52,27,27,0,0,1,8.84,16.34,16.41,16.41,0,0,1,6.07,1.13,15.32,15.32,0,0,1,5,3.19,14.65,14.65,0,0,1,3.36,4.85,15.46,15.46,0,0,1,0,12,15.44,15.44,0,0,1-8.13,8.13A14.91,14.91,0,0,1,159.69,91H94.91a18.51,18.51,0,0,1-7.41-1.49A19,19,0,0,1,77.35,79.36a19.17,19.17,0,0,1,0-14.82A19,19,0,0,1,87.5,54.39a18.68,18.68,0,0,1,7.41-1.49,18.24,18.24,0,0,1,6.61,1.22,19.81,19.81,0,0,1,5.78,3.48,26.13,26.13,0,0,1,3.6-8,26.49,26.49,0,0,1,5.86-6.3,27.37,27.37,0,0,1,7.53-4.11A25.65,25.65,0,0,1,133,37.66m0-5a30.77,30.77,0,0,0-10.41,1.78,32.48,32.48,0,0,0-8.89,4.86,31.69,31.69,0,0,0-7,7.48,33.19,33.19,0,0,0-1.93,3.31c-.49-.23-1-.44-1.48-.63a23.16,23.16,0,0,0-8.42-1.56,23.63,23.63,0,0,0-9.37,1.89A24,24,0,0,0,72.75,62.57a24.22,24.22,0,0,0,0,18.76A24,24,0,0,0,85.53,94.11,23.82,23.82,0,0,0,94.91,96h64.78a19.88,19.88,0,0,0,7.9-1.6,20.34,20.34,0,0,0,10.74-10.74,20.15,20.15,0,0,0-4.53-22.44,20.64,20.64,0,0,0-10.4-5.31A31.3,31.3,0,0,0,160.61,49a31.88,31.88,0,0,0-6.88-8.59A31.13,31.13,0,0,0,133,32.66Z"/></g><polygon class="cls-4" points="159.01 29.5 258.71 29.5 258.71 95.47 159.01 95.91 159.01 29.5"/><path class="cls-1" d="M256.21,32V93l-94.7.42V32h94.7m5-5H156.51V98.42l5,0,94.7-.41,5,0V27Z"/><path class="cls-4" d="M276.42,118.85a8.13,8.13,0,0,0-.74-2.82l-19.43-15.42H161.32L141.89,116a8.13,8.13,0,0,0-.74,2.82,27,27,0,0,0-.25,3.15H276.67A27,27,0,0,0,276.42,118.85Z"/><rect class="cls-5" x="169.9" y="42.92" width="67" height="39"/><g id="chat"><path class="cls-6" d="M209.37,66.39h2.48v2l1-1c.32-.33.65-.65,1-1H223V57.73H209.37Z"/><path class="cls-1" d="M223,66.39h-9.18c-.34.33-.67.65-1,1l-1,1v-2h-2.48V57.73H223Z"/><polygon class="cls-7" points="211.85 56.49 224.23 56.49 224.23 63.92 226.71 63.92 226.71 54.01 211.85 54.01 211.85 56.49"/><polygon class="cls-4" points="226.71 63.92 224.23 63.92 224.23 56.49 211.85 56.49 211.85 54.01 226.71 54.01 226.71 63.92"/></g><g id="call_phone"><path class="cls-1" d="M193.6,71.08a7.53,7.53,0,0,1-2.18-.34,12.32,12.32,0,0,1-2.28-1,17.56,17.56,0,0,1-2.26-1.45,21.84,21.84,0,0,1-2.12-1.84,20.64,20.64,0,0,1-1.86-2.11,16.81,16.81,0,0,1-1.47-2.27,12.61,12.61,0,0,1-1-2.3,7.77,7.77,0,0,1-.35-2.23,4.26,4.26,0,0,1,.13-1.16,2.69,2.69,0,0,1,.39-.84,4.6,4.6,0,0,1,.61-.74l.83-.82a.86.86,0,0,1,.63-.26.9.9,0,0,1,.41.14,3.41,3.41,0,0,1,.5.36c.17.15.35.32.53.5s.36.36.53.54l.45.49.33.36a.82.82,0,0,1,.26.63.79.79,0,0,1-.14.47,3.36,3.36,0,0,1-.36.42c-.14.15-.3.29-.47.44a4.48,4.48,0,0,0-.47.5,2.43,2.43,0,0,0-.35.61,1.79,1.79,0,0,0-.15.75,2.07,2.07,0,0,0,.16.82,2.14,2.14,0,0,0,.46.69l5.33,5.33a2.14,2.14,0,0,0,.69.46,2.25,2.25,0,0,0,.81.16,1.81,1.81,0,0,0,.76-.15,2.45,2.45,0,0,0,.61-.36,3.56,3.56,0,0,0,.49-.46l.44-.47a3.28,3.28,0,0,1,.43-.36.79.79,0,0,1,.46-.15.87.87,0,0,1,.64.26l.35.34.5.45.54.52.5.54a3,3,0,0,1,.36.5.87.87,0,0,1,.14.41.89.89,0,0,1-.26.63l-.82.83a4.51,4.51,0,0,1-.74.61,2.92,2.92,0,0,1-.84.38A4.34,4.34,0,0,1,193.6,71.08Z"/><g id="_Handset_-_Dial_Pad" data-name="~Handset - Dial Pad"><path class="cls-4" d="M196.15,61.25H190V60h6.19Z"/></g><rect class="cls-4" x="189.96" y="55.06" width="1.24" height="1.24"/><rect class="cls-4" x="189.96" y="57.53" width="1.24" height="1.24"/><rect class="cls-4" x="192.44" y="55.06" width="1.24" height="1.24"/><rect class="cls-4" x="192.44" y="57.53" width="1.24" height="1.24"/><rect class="cls-4" x="194.91" y="55.06" width="1.24" height="1.24"/><rect class="cls-4" x="194.91" y="57.53" width="1.24" height="1.24"/></g><rect class="cls-8" x="202.25" y="58.12" width="1.08" height="7.59"/></svg>