<svg id="Layer_1" data-name="Layer 1" xmlns="http://www.w3.org/2000/svg" viewBox="0 0 400 140"><defs><style>.cls-1{fill:#efefef;}.cls-2{fill:#939393;}.cls-3{fill:#2f2f2f;}.cls-4{fill:#0078d4;}.cls-5{fill:#d2d2d2;}.cls-6{fill:#e6e6e6;}.cls-7{fill:#fff;}</style></defs><title>Skype_Biz_3_400x140</title><rect class="cls-1" width="400" height="140"/><g id="server_generic"><path class="cls-2" d="M207.58,124.5a6.2,6.2,0,0,1-6.19-6.2V20.7a6.2,6.2,0,0,1,6.19-6.2h52.61a6.21,6.21,0,0,1,6.2,6.2v97.6a6.21,6.21,0,0,1-6.2,6.2ZM238.89,112v-2.5h-10V112Z"/><path class="cls-1" d="M260.19,17a3.7,3.7,0,0,1,3.7,3.7v97.6a3.7,3.7,0,0,1-3.7,3.7H207.58a3.69,3.69,0,0,1-3.69-3.7V20.7a3.69,3.69,0,0,1,3.69-3.7h52.61m-33.8,97.5h15V107h-15v7.5M260.19,12H207.58a8.7,8.7,0,0,0-8.69,8.7v97.6a8.7,8.7,0,0,0,8.69,8.7h52.61a8.71,8.71,0,0,0,8.7-8.7V20.7a8.71,8.71,0,0,0-8.7-8.7Z"/></g><path class="cls-3" d="M130.84,120.71V108.84h16.65v-4.78H93.3a5.78,5.78,0,0,1-5.77-5.78v-62a5.78,5.78,0,0,1,5.77-5.77H215.79a5.78,5.78,0,0,1,5.77,5.77v62a5.78,5.78,0,0,1-5.77,5.78h-55v4.78h16.65v11.87Z"/><path class="cls-1" d="M215.79,33a3.26,3.26,0,0,1,3.27,3.27v62a3.27,3.27,0,0,1-3.27,3.28H158.32v9.78H175v6.87H133.34v-6.87H150v-9.78H93.3A3.28,3.28,0,0,1,90,98.28v-62A3.27,3.27,0,0,1,93.3,33H215.79m0-5H93.3A8.28,8.28,0,0,0,85,36.3v62a8.28,8.28,0,0,0,8.27,8.28h35v16.65H180V106.56h35.82a8.28,8.28,0,0,0,8.27-8.28v-62A8.28,8.28,0,0,0,215.79,28Z"/><rect class="cls-4" x="99" y="44" width="83" height="46"/><g id="chat"><path class="cls-5" d="M147.46,72.77h3.3v2.61l1.29-1.32c.42-.43.86-.87,1.32-1.29h12.21V61.24H147.46Z"/><path class="cls-1" d="M165.58,72.77H153.37c-.46.42-.9.86-1.32,1.29l-1.29,1.32V72.77h-3.3V61.24h18.12Z"/><polygon class="cls-6" points="150.76 59.59 167.22 59.59 167.22 69.47 170.51 69.47 170.51 56.3 150.76 56.3 150.76 59.59"/><polygon class="cls-3" points="170.51 69.47 167.22 69.47 167.22 59.59 150.76 59.59 150.76 56.3 170.51 56.3 170.51 69.47"/></g><g id="call_phone"><path class="cls-1" d="M126.48,79a9.88,9.88,0,0,1-2.9-.46,16.18,16.18,0,0,1-3-1.27,23.12,23.12,0,0,1-3-1.93,27.84,27.84,0,0,1-5.29-5.26,23.4,23.4,0,0,1-2-3A16.71,16.71,0,0,1,109,64a10.2,10.2,0,0,1-.47-3,5.66,5.66,0,0,1,.18-1.54,3.57,3.57,0,0,1,.51-1.12,6.66,6.66,0,0,1,.82-1l1.1-1.09A1.15,1.15,0,0,1,112,56a1.07,1.07,0,0,1,.54.19,4.24,4.24,0,0,1,.67.48c.23.2.47.42.71.66s.48.49.69.72l.61.66.44.47A1.15,1.15,0,0,1,116,60a1.06,1.06,0,0,1-.19.62,4,4,0,0,1-.48.57c-.19.19-.4.38-.62.58a4.92,4.92,0,0,0-.63.66,4,4,0,0,0-.47.81,2.46,2.46,0,0,0-.19,1,2.85,2.85,0,0,0,.21,1.08,2.6,2.6,0,0,0,.61.92l7.08,7.09a2.84,2.84,0,0,0,.92.61,2.9,2.9,0,0,0,1.09.21,2.53,2.53,0,0,0,1-.19,3.77,3.77,0,0,0,.8-.48,4.84,4.84,0,0,0,.66-.62c.2-.23.4-.44.59-.63a4.65,4.65,0,0,1,.56-.47,1.08,1.08,0,0,1,.62-.19,1.16,1.16,0,0,1,.85.34l.47.45.65.6.72.69c.25.25.47.49.67.72a6,6,0,0,1,.48.66,1.17,1.17,0,0,1,.19.55,1.14,1.14,0,0,1-.35.83c-.41.41-.78.78-1.09,1.11a5.92,5.92,0,0,1-1,.81,4.15,4.15,0,0,1-1.13.51A6.1,6.1,0,0,1,126.48,79Z"/><g id="_Handset_-_Dial_Pad" data-name="~Handset - Dial Pad"><path class="cls-3" d="M129.87,65.92h-8.23V64.27h8.23Z"/></g><rect class="cls-3" x="121.64" y="57.69" width="1.65" height="1.65"/><rect class="cls-3" x="121.64" y="60.98" width="1.65" height="1.65"/><rect class="cls-3" x="124.93" y="57.69" width="1.65" height="1.65"/><rect class="cls-3" x="124.93" y="60.98" width="1.65" height="1.65"/><rect class="cls-3" x="128.23" y="57.69" width="1.65" height="1.65"/><rect class="cls-3" x="128.23" y="60.98" width="1.65" height="1.65"/></g><rect class="cls-7" x="137.99" y="61.76" width="1.44" height="10.1"/></svg>