<?xml version="1.0" encoding="utf-8"?>
<!-- Generator: Adobe Illustrator 22.1.0, SVG Export Plug-In . SVG Version: 6.00 Build 0)  -->
<svg version="1.1" id="Layer_1" xmlns="http://www.w3.org/2000/svg" xmlns:xlink="http://www.w3.org/1999/xlink" x="0px" y="0px"
	 viewBox="0 0 64 64" style="enable-background:new 0 0 64 64;" xml:space="preserve">
<style type="text/css">
	.st0{fill:#C2C2C2;}
	.st1{fill:#2F2F2F;}
	.st2{fill:#0078D4;}
</style>
<title>blog_site</title>
<g id="Layer_2_1_">
	<g id="SYMBOLS">
		<g id="blog_site">
			<polygon class="st0" points="54.7,22.1 54.7,19.5 1,19.5 1,50.2 27.3,50.2 54.7,23.1 			"/>
			<rect x="1" y="8" class="st1" width="53.7" height="7.7"/>
			<polygon class="st0" points="54.8,50.3 54.8,39.9 45,50.3 			"/>
			<path class="st1" d="M55.3,26.7l4.5,4.4L37.3,53.6c-0.7-2.1-2.3-3.8-4.5-4.5L55.3,26.7z"/>
			<path class="st2" d="M57.2,24.6c0.2-0.2,0.4-0.4,0.7-0.6s0.6-0.3,0.9-0.4c0.3-0.1,0.7-0.2,1-0.2c0.4,0,0.8,0.1,1.2,0.3
				c0.4,0.2,0.7,0.4,1,0.7c0.3,0.3,0.5,0.6,0.7,1s0.2,0.8,0.3,1.2c0,0.3,0,0.7-0.2,1c-0.1,0.3-0.3,0.6-0.4,0.8
				c-0.2,0.3-0.4,0.5-0.6,0.7L61,29.8l-4.4-4.5L57.2,24.6z"/>
			<path class="st1" d="M31.7,51c0.5,0.1,0.9,0.3,1.3,0.5c0.8,0.5,1.5,1.1,1.9,1.9c0.2,0.4,0.4,0.9,0.5,1.3l-5,1.2L31.7,51z"/>
		</g>
	</g>
</g>
</svg>
