<svg xmlns="http://www.w3.org/2000/svg" viewBox="0 0 26.64 31.97"><defs><style>.cls-1{fill:none;}.cls-2{fill:#0078D4;}.cls-3{fill:#c2c2c2;}.cls-4{fill:#2f2f2f;}</style></defs><title>paragraph_writing</title><g id="Layer_2" data-name="Layer 2"><g id="SYMBOLS"><g id="paragraph_writing"><path class="cls-1" d="M5.54,2a1.16,1.16,0,0,1-.12-.34c0-.12,0-.24-.07-.37h0a2,2,0,0,0-.09.35.88.88,0,0,1-.1.36L3.25,6.54H7.39Z"/><path class="cls-2" d="M2.75,7.66H7.87l1.29,3h1.56L6.1,0H4.62L0,10.66H1.58ZM5.12,2a.88.88,0,0,0,.1-.36,2,2,0,0,1,.09-.35h0c0,.13.05.25.07.37A1.16,1.16,0,0,0,5.54,2L7.39,6.54H3.25Z"/><rect class="cls-3" x="0.04" y="29.3" width="26.6" height="2.66"/><rect class="cls-3" x="0.04" y="23.98" width="26.6" height="2.66"/><rect class="cls-3" x="0.04" y="18.65" width="26.6" height="2.66"/><rect class="cls-4" x="13.32" y="7.99" width="13.32" height="2.66"/><rect class="cls-3" x="0.04" y="13.32" width="26.6" height="2.66"/></g></g></g></svg>